<svg id="visual" viewBox="0 0 900 600" width="900" height="600" xmlns="http://www.w3.org/2000/svg" xmlns:xlink="http://www.w3.org/1999/xlink" version="1.1"><rect x="0" y="0" width="900" height="600" fill="#001220"></rect><path d="M0 396L21.5 396.2C43 396.3 86 396.7 128.8 395.2C171.7 393.7 214.3 390.3 257.2 394.5C300 398.7 343 410.3 385.8 404.5C428.7 398.7 471.3 375.3 514.2 376.7C557 378 600 404 642.8 419.8C685.7 435.7 728.3 441.3 771.2 431.2C814 421 857 395 878.5 382L900 369L900 601L878.5 601C857 601 814 601 771.2 601C728.3 601 685.7 601 642.8 601C600 601 557 601 514.2 601C471.3 601 428.7 601 385.8 601C343 601 300 601 257.2 601C214.3 601 171.7 601 128.8 601C86 601 43 601 21.5 601L0 601Z" fill="#9d0a00"></path><path d="M0 406L21.5 404.8C43 403.7 86 401.3 128.8 413.3C171.7 425.3 214.3 451.7 257.2 452.2C300 452.7 343 427.3 385.8 414.3C428.7 401.3 471.3 400.7 514.2 403C557 405.3 600 410.7 642.8 423.2C685.7 435.7 728.3 455.3 771.2 455.3C814 455.3 857 435.7 878.5 425.8L900 416L900 601L878.5 601C857 601 814 601 771.2 601C728.3 601 685.7 601 642.8 601C600 601 557 601 514.2 601C471.3 601 428.7 601 385.8 601C343 601 300 601 257.2 601C214.3 601 171.7 601 128.8 601C86 601 43 601 21.5 601L0 601Z" fill="#8b0802"></path><path d="M0 495L21.5 487.8C43 480.7 86 466.3 128.8 467.8C171.7 469.3 214.3 486.7 257.2 496C300 505.3 343 506.7 385.8 501.8C428.7 497 471.3 486 514.2 475.2C557 464.3 600 453.7 642.8 457C685.7 460.3 728.3 477.7 771.2 486.3C814 495 857 495 878.5 495L900 495L900 601L878.5 601C857 601 814 601 771.2 601C728.3 601 685.7 601 642.8 601C600 601 557 601 514.2 601C471.3 601 428.7 601 385.8 601C343 601 300 601 257.2 601C214.3 601 171.7 601 128.8 601C86 601 43 601 21.5 601L0 601Z" fill="#790703"></path><path d="M0 502L21.5 503.5C43 505 86 508 128.8 505.5C171.7 503 214.3 495 257.2 495.5C300 496 343 505 385.8 504.3C428.7 503.7 471.3 493.3 514.2 496.5C557 499.7 600 516.3 642.8 521.3C685.7 526.3 728.3 519.7 771.2 512.3C814 505 857 497 878.5 493L900 489L900 601L878.5 601C857 601 814 601 771.2 601C728.3 601 685.7 601 642.8 601C600 601 557 601 514.2 601C471.3 601 428.7 601 385.8 601C343 601 300 601 257.2 601C214.3 601 171.7 601 128.8 601C86 601 43 601 21.5 601L0 601Z" fill="#680602"></path><path d="M0 554L21.5 551C43 548 86 542 128.8 541.3C171.7 540.7 214.3 545.3 257.2 548.5C300 551.7 343 553.3 385.8 554.5C428.7 555.7 471.3 556.3 514.2 558.5C557 560.7 600 564.3 642.8 563.5C685.7 562.7 728.3 557.3 771.2 557.7C814 558 857 564 878.5 567L900 570L900 601L878.5 601C857 601 814 601 771.2 601C728.3 601 685.7 601 642.8 601C600 601 557 601 514.2 601C471.3 601 428.7 601 385.8 601C343 601 300 601 257.2 601C214.3 601 171.7 601 128.8 601C86 601 43 601 21.5 601L0 601Z" fill="#570600"></path></svg>