<svg id="visual" viewBox="0 0 4000 2000" width="4000" height="2000" xmlns="http://www.w3.org/2000/svg" xmlns:xlink="http://www.w3.org/1999/xlink" version="1.1"><rect x="0" y="0" width="4000" height="2000" fill="#017726"></rect><defs><linearGradient id="grad1_0" x1="50%" y1="100%" x2="100%" y2="0%"><stop offset="10%" stop-color="#518055" stop-opacity="1"></stop><stop offset="90%" stop-color="#518055" stop-opacity="1"></stop></linearGradient></defs><defs><linearGradient id="grad1_1" x1="50%" y1="100%" x2="100%" y2="0%"><stop offset="10%" stop-color="#518055" stop-opacity="1"></stop><stop offset="90%" stop-color="#3f7d46" stop-opacity="1"></stop></linearGradient></defs><defs><linearGradient id="grad1_2" x1="50%" y1="100%" x2="100%" y2="0%"><stop offset="10%" stop-color="#2a7a37" stop-opacity="1"></stop><stop offset="90%" stop-color="#3f7d46" stop-opacity="1"></stop></linearGradient></defs><defs><linearGradient id="grad1_3" x1="50%" y1="100%" x2="100%" y2="0%"><stop offset="10%" stop-color="#2a7a37" stop-opacity="1"></stop><stop offset="90%" stop-color="#017726" stop-opacity="1"></stop></linearGradient></defs><defs><linearGradient id="grad2_0" x1="0%" y1="100%" x2="50%" y2="0%"><stop offset="10%" stop-color="#518055" stop-opacity="1"></stop><stop offset="90%" stop-color="#518055" stop-opacity="1"></stop></linearGradient></defs><defs><linearGradient id="grad2_1" x1="0%" y1="100%" x2="50%" y2="0%"><stop offset="10%" stop-color="#3f7d46" stop-opacity="1"></stop><stop offset="90%" stop-color="#518055" stop-opacity="1"></stop></linearGradient></defs><defs><linearGradient id="grad2_2" x1="0%" y1="100%" x2="50%" y2="0%"><stop offset="10%" stop-color="#3f7d46" stop-opacity="1"></stop><stop offset="90%" stop-color="#2a7a37" stop-opacity="1"></stop></linearGradient></defs><defs><linearGradient id="grad2_3" x1="0%" y1="100%" x2="50%" y2="0%"><stop offset="10%" stop-color="#017726" stop-opacity="1"></stop><stop offset="90%" stop-color="#2a7a37" stop-opacity="1"></stop></linearGradient></defs><g transform="translate(4000, 2000)"><path d="M-1900 0C-1803.7 -228.8 -1707.4 -457.6 -1603.9 -664.3C-1500.3 -871.1 -1389.5 -1055.9 -1249.5 -1249.5C-1109.4 -1443 -940.2 -1645.5 -727.1 -1755.4C-514 -1865.3 -257 -1882.6 0 -1900L0 0Z" fill="#1b792f"></path><path d="M-1425 0C-1352.8 -171.6 -1280.6 -343.2 -1202.9 -498.3C-1125.2 -653.3 -1042.1 -791.9 -937.1 -937.1C-832.1 -1082.3 -705.2 -1234.1 -545.3 -1316.5C-385.5 -1399 -192.7 -1412 0 -1425L0 0Z" fill="#357c3f"></path><path d="M-950 0C-901.9 -114.4 -853.7 -228.8 -801.9 -332.2C-750.1 -435.6 -694.7 -527.9 -624.7 -624.7C-554.7 -721.5 -470.1 -822.7 -363.5 -877.7C-257 -932.6 -128.5 -941.3 0 -950L0 0Z" fill="#487f4e"></path><path d="M-475 0C-450.9 -57.2 -426.9 -114.4 -401 -166.1C-375.1 -217.8 -347.4 -264 -312.4 -312.4C-277.4 -360.8 -235.1 -411.4 -181.8 -438.8C-128.5 -466.3 -64.2 -470.7 0 -475L0 0Z" fill="#518055"></path></g><g transform="translate(0, 0)"><path d="M1900 0C1884.9 257.2 1869.8 514.4 1755.4 727.1C1640.9 939.8 1427.1 1108 1223.3 1223.3C1019.5 1338.6 825.6 1401 623.4 1505C421.2 1609 210.6 1754.5 0 1900L0 0Z" fill="#1b792f"></path><path d="M1425 0C1413.7 192.9 1402.4 385.8 1316.5 545.3C1230.7 704.8 1070.3 831 917.5 917.5C764.6 1004 619.2 1050.8 467.5 1128.7C315.9 1206.7 157.9 1315.9 0 1425L0 0Z" fill="#357c3f"></path><path d="M950 0C942.5 128.6 934.9 257.2 877.7 363.5C820.5 469.9 713.6 554 611.6 611.6C509.7 669.3 412.8 700.5 311.7 752.5C210.6 804.5 105.3 877.2 0 950L0 0Z" fill="#487f4e"></path><path d="M475 0C471.2 64.3 467.5 128.6 438.8 181.8C410.2 234.9 356.8 277 305.8 305.8C254.9 334.7 206.4 350.3 155.8 376.2C105.3 402.2 52.6 438.6 0 475L0 0Z" fill="#518055"></path></g></svg>