<svg id="visual" viewBox="0 0 4000 2000" width="4000" height="2000" xmlns="http://www.w3.org/2000/svg" xmlns:xlink="http://www.w3.org/1999/xlink" version="1.1"><rect x="0" y="0" width="4000" height="2000" fill="#017726"></rect><defs><linearGradient id="grad1_0" x1="50%" y1="100%" x2="100%" y2="0%"><stop offset="10%" stop-color="#518055" stop-opacity="1"></stop><stop offset="90%" stop-color="#518055" stop-opacity="1"></stop></linearGradient></defs><defs><linearGradient id="grad1_1" x1="50%" y1="100%" x2="100%" y2="0%"><stop offset="10%" stop-color="#518055" stop-opacity="1"></stop><stop offset="90%" stop-color="#3f7d46" stop-opacity="1"></stop></linearGradient></defs><defs><linearGradient id="grad1_2" x1="50%" y1="100%" x2="100%" y2="0%"><stop offset="10%" stop-color="#2a7a37" stop-opacity="1"></stop><stop offset="90%" stop-color="#3f7d46" stop-opacity="1"></stop></linearGradient></defs><defs><linearGradient id="grad1_3" x1="50%" y1="100%" x2="100%" y2="0%"><stop offset="10%" stop-color="#2a7a37" stop-opacity="1"></stop><stop offset="90%" stop-color="#017726" stop-opacity="1"></stop></linearGradient></defs><defs><linearGradient id="grad2_0" x1="0%" y1="100%" x2="50%" y2="0%"><stop offset="10%" stop-color="#518055" stop-opacity="1"></stop><stop offset="90%" stop-color="#518055" stop-opacity="1"></stop></linearGradient></defs><defs><linearGradient id="grad2_1" x1="0%" y1="100%" x2="50%" y2="0%"><stop offset="10%" stop-color="#3f7d46" stop-opacity="1"></stop><stop offset="90%" stop-color="#518055" stop-opacity="1"></stop></linearGradient></defs><defs><linearGradient id="grad2_2" x1="0%" y1="100%" x2="50%" y2="0%"><stop offset="10%" stop-color="#3f7d46" stop-opacity="1"></stop><stop offset="90%" stop-color="#2a7a37" stop-opacity="1"></stop></linearGradient></defs><defs><linearGradient id="grad2_3" x1="0%" y1="100%" x2="50%" y2="0%"><stop offset="10%" stop-color="#017726" stop-opacity="1"></stop><stop offset="90%" stop-color="#2a7a37" stop-opacity="1"></stop></linearGradient></defs><g transform="translate(4000, 2000)"><path d="M-1900 0C-1769.6 -208.8 -1639.1 -417.7 -1558.6 -645.6C-1478.1 -873.5 -1447.5 -1120.5 -1318.8 -1318.8C-1190 -1517 -963.2 -1666.6 -727.1 -1755.4C-491 -1844.1 -245.5 -1872.1 0 -1900L0 0Z" fill="#1b792f"></path><path d="M-1425 0C-1327.2 -156.6 -1229.3 -313.3 -1168.9 -484.2C-1108.5 -655.1 -1085.6 -840.4 -989.1 -989.1C-892.5 -1137.8 -722.4 -1250 -545.3 -1316.5C-368.2 -1383.1 -184.1 -1404 0 -1425L0 0Z" fill="#357c3f"></path><path d="M-950 0C-884.8 -104.4 -819.6 -208.8 -779.3 -322.8C-739 -436.7 -723.7 -560.2 -659.4 -659.4C-595 -758.5 -481.6 -833.3 -363.5 -877.7C-245.5 -922.1 -122.7 -936 0 -950L0 0Z" fill="#487f4e"></path><path d="M-475 0C-442.4 -52.2 -409.8 -104.4 -389.6 -161.4C-369.5 -218.4 -361.9 -280.1 -329.7 -329.7C-297.5 -379.3 -240.8 -416.7 -181.8 -438.8C-122.7 -461 -61.4 -468 0 -475L0 0Z" fill="#518055"></path></g><g transform="translate(0, 0)"><path d="M1900 0C1891.1 267.1 1882.3 534.2 1755.4 727.1C1628.5 920 1383.5 1038.6 1197.8 1197.8C1012.2 1357 885.9 1556.8 696.1 1680.5C506.3 1804.3 253.2 1852.2 0 1900L0 0Z" fill="#1b792f"></path><path d="M1425 0C1418.4 200.3 1411.7 400.7 1316.5 545.3C1221.3 690 1037.6 779 898.4 898.4C759.1 1017.8 664.4 1167.6 522.1 1260.4C379.8 1353.2 189.9 1389.1 0 1425L0 0Z" fill="#357c3f"></path><path d="M950 0C945.6 133.6 941.1 267.1 877.7 363.5C814.2 460 691.7 519.3 598.9 598.9C506.1 678.5 442.9 778.4 348.1 840.3C253.2 902.2 126.6 926.1 0 950L0 0Z" fill="#487f4e"></path><path d="M475 0C472.8 66.8 470.6 133.6 438.8 181.8C407.1 230 345.9 259.7 299.5 299.5C253 339.3 221.5 389.2 174 420.1C126.6 451.1 63.3 463 0 475L0 0Z" fill="#518055"></path></g></svg>