<svg id="visual" viewBox="0 0 4000 2000" width="4000" height="2000" xmlns="http://www.w3.org/2000/svg" xmlns:xlink="http://www.w3.org/1999/xlink" version="1.1"><rect x="0" y="0" width="4000" height="2000" fill="#017726"></rect><defs><linearGradient id="grad1_0" x1="50%" y1="100%" x2="100%" y2="0%"><stop offset="10%" stop-color="#518055" stop-opacity="1"></stop><stop offset="90%" stop-color="#518055" stop-opacity="1"></stop></linearGradient></defs><defs><linearGradient id="grad1_1" x1="50%" y1="100%" x2="100%" y2="0%"><stop offset="10%" stop-color="#518055" stop-opacity="1"></stop><stop offset="90%" stop-color="#3f7d46" stop-opacity="1"></stop></linearGradient></defs><defs><linearGradient id="grad1_2" x1="50%" y1="100%" x2="100%" y2="0%"><stop offset="10%" stop-color="#2a7a37" stop-opacity="1"></stop><stop offset="90%" stop-color="#3f7d46" stop-opacity="1"></stop></linearGradient></defs><defs><linearGradient id="grad1_3" x1="50%" y1="100%" x2="100%" y2="0%"><stop offset="10%" stop-color="#2a7a37" stop-opacity="1"></stop><stop offset="90%" stop-color="#017726" stop-opacity="1"></stop></linearGradient></defs><defs><linearGradient id="grad2_0" x1="0%" y1="100%" x2="50%" y2="0%"><stop offset="10%" stop-color="#518055" stop-opacity="1"></stop><stop offset="90%" stop-color="#518055" stop-opacity="1"></stop></linearGradient></defs><defs><linearGradient id="grad2_1" x1="0%" y1="100%" x2="50%" y2="0%"><stop offset="10%" stop-color="#3f7d46" stop-opacity="1"></stop><stop offset="90%" stop-color="#518055" stop-opacity="1"></stop></linearGradient></defs><defs><linearGradient id="grad2_2" x1="0%" y1="100%" x2="50%" y2="0%"><stop offset="10%" stop-color="#3f7d46" stop-opacity="1"></stop><stop offset="90%" stop-color="#2a7a37" stop-opacity="1"></stop></linearGradient></defs><defs><linearGradient id="grad2_3" x1="0%" y1="100%" x2="50%" y2="0%"><stop offset="10%" stop-color="#017726" stop-opacity="1"></stop><stop offset="90%" stop-color="#2a7a37" stop-opacity="1"></stop></linearGradient></defs><g transform="translate(4000, 2000)"><path d="M-1900 0C-1770.2 -203.4 -1640.3 -406.9 -1569.7 -650.2C-1499 -893.5 -1487.5 -1176.6 -1343.5 -1343.5C-1199.5 -1510.4 -923 -1561 -677 -1634.3C-431 -1707.7 -215.5 -1803.9 0 -1900L0 0Z" fill="#1b792f"></path><path d="M-1425 0C-1327.6 -152.6 -1230.3 -305.2 -1177.3 -487.6C-1124.3 -670.1 -1115.6 -882.5 -1007.6 -1007.6C-899.6 -1132.8 -692.2 -1170.7 -507.7 -1225.8C-323.2 -1280.8 -161.6 -1352.9 0 -1425L0 0Z" fill="#357c3f"></path><path d="M-950 0C-885.1 -101.7 -820.2 -203.4 -784.8 -325.1C-749.5 -446.7 -743.8 -588.3 -671.8 -671.8C-599.7 -755.2 -461.5 -780.5 -338.5 -817.2C-215.5 -853.9 -107.7 -901.9 0 -950L0 0Z" fill="#487f4e"></path><path d="M-475 0C-442.5 -50.9 -410.1 -101.7 -392.4 -162.5C-374.8 -223.4 -371.9 -294.2 -335.9 -335.9C-299.9 -377.6 -230.7 -390.2 -169.2 -408.6C-107.7 -426.9 -53.9 -451 0 -475L0 0Z" fill="#518055"></path></g><g transform="translate(0, 0)"><path d="M1900 0C1886.5 259.5 1873 518.9 1755.4 727.1C1637.7 935.3 1416 1092.1 1215.5 1215.5C1015 1338.9 835.8 1428.8 636.8 1537.3C437.7 1645.8 218.9 1772.9 0 1900L0 0Z" fill="#1b792f"></path><path d="M1425 0C1414.9 194.6 1404.7 389.2 1316.5 545.3C1228.3 701.4 1062 819.1 911.6 911.6C761.3 1004.2 626.9 1071.6 477.6 1153C328.3 1234.4 164.2 1329.7 0 1425L0 0Z" fill="#357c3f"></path><path d="M950 0C943.2 129.7 936.5 259.5 877.7 363.5C818.9 467.6 708 546.1 607.8 607.8C507.5 669.5 417.9 714.4 318.4 768.7C218.9 822.9 109.4 886.5 0 950L0 0Z" fill="#487f4e"></path><path d="M475 0C471.6 64.9 468.2 129.7 438.8 181.8C409.4 233.8 354 273 303.9 303.9C253.8 334.7 209 357.2 159.2 384.3C109.4 411.5 54.7 443.2 0 475L0 0Z" fill="#518055"></path></g></svg>