<svg id="visual" viewBox="0 0 4000 2000" width="4000" height="2000" xmlns="http://www.w3.org/2000/svg" xmlns:xlink="http://www.w3.org/1999/xlink" version="1.1"><rect x="0" y="0" width="4000" height="2000" fill="#017726"></rect><defs><linearGradient id="grad1_0" x1="50%" y1="100%" x2="100%" y2="0%"><stop offset="10%" stop-color="#518055" stop-opacity="1"></stop><stop offset="90%" stop-color="#518055" stop-opacity="1"></stop></linearGradient></defs><defs><linearGradient id="grad1_1" x1="50%" y1="100%" x2="100%" y2="0%"><stop offset="10%" stop-color="#518055" stop-opacity="1"></stop><stop offset="90%" stop-color="#3f7d46" stop-opacity="1"></stop></linearGradient></defs><defs><linearGradient id="grad1_2" x1="50%" y1="100%" x2="100%" y2="0%"><stop offset="10%" stop-color="#2a7a37" stop-opacity="1"></stop><stop offset="90%" stop-color="#3f7d46" stop-opacity="1"></stop></linearGradient></defs><defs><linearGradient id="grad1_3" x1="50%" y1="100%" x2="100%" y2="0%"><stop offset="10%" stop-color="#2a7a37" stop-opacity="1"></stop><stop offset="90%" stop-color="#017726" stop-opacity="1"></stop></linearGradient></defs><defs><linearGradient id="grad2_0" x1="0%" y1="100%" x2="50%" y2="0%"><stop offset="10%" stop-color="#518055" stop-opacity="1"></stop><stop offset="90%" stop-color="#518055" stop-opacity="1"></stop></linearGradient></defs><defs><linearGradient id="grad2_1" x1="0%" y1="100%" x2="50%" y2="0%"><stop offset="10%" stop-color="#3f7d46" stop-opacity="1"></stop><stop offset="90%" stop-color="#518055" stop-opacity="1"></stop></linearGradient></defs><defs><linearGradient id="grad2_2" x1="0%" y1="100%" x2="50%" y2="0%"><stop offset="10%" stop-color="#3f7d46" stop-opacity="1"></stop><stop offset="90%" stop-color="#2a7a37" stop-opacity="1"></stop></linearGradient></defs><defs><linearGradient id="grad2_3" x1="0%" y1="100%" x2="50%" y2="0%"><stop offset="10%" stop-color="#017726" stop-opacity="1"></stop><stop offset="90%" stop-color="#2a7a37" stop-opacity="1"></stop></linearGradient></defs><g transform="translate(4000, 2000)"><path d="M-1900 0C-1760.8 -212.2 -1621.6 -424.5 -1519.8 -629.5C-1418 -834.5 -1353.6 -1032.3 -1234.6 -1234.6C-1115.6 -1436.9 -942 -1643.7 -727.1 -1755.4C-512.2 -1867 -256.1 -1883.5 0 -1900L0 0Z" fill="#1b792f"></path><path d="M-1425 0C-1320.6 -159.2 -1216.2 -318.4 -1139.8 -472.1C-1063.5 -625.9 -1015.2 -774.2 -926 -926C-836.7 -1077.7 -706.5 -1232.8 -545.3 -1316.5C-384.2 -1400.3 -192.1 -1412.6 0 -1425L0 0Z" fill="#357c3f"></path><path d="M-950 0C-880.4 -106.1 -810.8 -212.2 -759.9 -314.8C-709 -417.3 -676.8 -516.2 -617.3 -617.3C-557.8 -718.5 -471 -821.9 -363.5 -877.7C-256.1 -933.5 -128.1 -941.8 0 -950L0 0Z" fill="#487f4e"></path><path d="M-475 0C-440.2 -53.1 -405.4 -106.1 -379.9 -157.4C-354.5 -208.6 -338.4 -258.1 -308.7 -308.7C-278.9 -359.2 -235.5 -410.9 -181.8 -438.8C-128.1 -466.8 -64 -470.9 0 -475L0 0Z" fill="#518055"></path></g><g transform="translate(0, 0)"><path d="M1900 0C1894.2 264.7 1888.3 529.3 1755.4 727.1C1622.4 924.9 1362.4 1055.7 1149.8 1149.8C937.1 1243.8 771.9 1301.1 588.2 1420C404.5 1538.9 202.2 1719.5 0 1900L0 0Z" fill="#1b792f"></path><path d="M1425 0C1420.6 198.5 1416.2 397 1316.5 545.3C1216.8 693.6 1021.8 791.8 862.3 862.3C702.8 932.9 578.9 975.8 441.1 1065C303.3 1154.2 151.7 1289.6 0 1425L0 0Z" fill="#357c3f"></path><path d="M950 0C947.1 132.3 944.2 264.7 877.7 363.5C811.2 462.4 681.2 527.8 574.9 574.9C468.6 621.9 386 650.5 294.1 710C202.2 769.5 101.1 859.7 0 950L0 0Z" fill="#487f4e"></path><path d="M475 0C473.5 66.2 472.1 132.3 438.8 181.8C405.6 231.2 340.6 263.9 287.4 287.4C234.3 311 193 325.3 147 355C101.1 384.7 50.6 429.9 0 475L0 0Z" fill="#518055"></path></g></svg>