<svg id="visual" viewBox="0 0 2000 1000" width="2000" height="1000" xmlns="http://www.w3.org/2000/svg" xmlns:xlink="http://www.w3.org/1999/xlink" version="1.1"><rect x="0" y="0" width="2000" height="1000" fill="#0e2038"></rect><defs><linearGradient id="grad1_0" x1="50%" y1="100%" x2="100%" y2="0%"><stop offset="10%" stop-color="#001122" stop-opacity="1"></stop><stop offset="90%" stop-color="#001122" stop-opacity="1"></stop></linearGradient></defs><defs><linearGradient id="grad1_1" x1="50%" y1="100%" x2="100%" y2="0%"><stop offset="10%" stop-color="#001122" stop-opacity="1"></stop><stop offset="90%" stop-color="#041527" stop-opacity="1"></stop></linearGradient></defs><defs><linearGradient id="grad1_2" x1="50%" y1="100%" x2="100%" y2="0%"><stop offset="10%" stop-color="#07192d" stop-opacity="1"></stop><stop offset="90%" stop-color="#041527" stop-opacity="1"></stop></linearGradient></defs><defs><linearGradient id="grad1_3" x1="50%" y1="100%" x2="100%" y2="0%"><stop offset="10%" stop-color="#07192d" stop-opacity="1"></stop><stop offset="90%" stop-color="#0a1c32" stop-opacity="1"></stop></linearGradient></defs><defs><linearGradient id="grad1_4" x1="50%" y1="100%" x2="100%" y2="0%"><stop offset="10%" stop-color="#0e2038" stop-opacity="1"></stop><stop offset="90%" stop-color="#0a1c32" stop-opacity="1"></stop></linearGradient></defs><defs><linearGradient id="grad2_0" x1="0%" y1="100%" x2="50%" y2="0%"><stop offset="10%" stop-color="#001122" stop-opacity="1"></stop><stop offset="90%" stop-color="#001122" stop-opacity="1"></stop></linearGradient></defs><defs><linearGradient id="grad2_1" x1="0%" y1="100%" x2="50%" y2="0%"><stop offset="10%" stop-color="#041527" stop-opacity="1"></stop><stop offset="90%" stop-color="#001122" stop-opacity="1"></stop></linearGradient></defs><defs><linearGradient id="grad2_2" x1="0%" y1="100%" x2="50%" y2="0%"><stop offset="10%" stop-color="#041527" stop-opacity="1"></stop><stop offset="90%" stop-color="#07192d" stop-opacity="1"></stop></linearGradient></defs><defs><linearGradient id="grad2_3" x1="0%" y1="100%" x2="50%" y2="0%"><stop offset="10%" stop-color="#0a1c32" stop-opacity="1"></stop><stop offset="90%" stop-color="#07192d" stop-opacity="1"></stop></linearGradient></defs><defs><linearGradient id="grad2_4" x1="0%" y1="100%" x2="50%" y2="0%"><stop offset="10%" stop-color="#0a1c32" stop-opacity="1"></stop><stop offset="90%" stop-color="#0e2038" stop-opacity="1"></stop></linearGradient></defs><g transform="translate(2000, 1000)"><path d="M-1000 0C-1006.4 -42.5 -1012.9 -84.9 -987.7 -119.9C-962.6 -154.9 -905.9 -182.5 -888.4 -219C-870.9 -255.5 -892.5 -301 -879.9 -333.7C-867.2 -366.4 -820.2 -386.3 -804 -422C-787.7 -457.7 -802.2 -509.1 -791.7 -546.5C-781.2 -583.8 -745.9 -607 -716.3 -634.6C-686.8 -662.2 -663 -694.2 -627.3 -708.1C-591.6 -722 -543.9 -717.9 -519.2 -752.2C-494.5 -786.5 -492.8 -859.1 -464.7 -885.5C-436.7 -911.8 -382.3 -891.7 -339.7 -895.7C-297.1 -899.8 -266.3 -927.8 -230 -933.1C-193.7 -938.3 -151.9 -920.8 -112.7 -928.2C-73.5 -935.5 -36.7 -967.8 0 -1000L0 0Z" fill="#0c1e35"></path><path d="M-800 0C-805.1 -34 -810.3 -67.9 -790.2 -95.9C-770.1 -123.9 -724.8 -146 -710.7 -175.2C-696.7 -204.4 -714 -240.8 -703.9 -266.9C-693.8 -293.1 -656.2 -309 -643.2 -337.6C-630.2 -366.1 -641.7 -407.3 -633.4 -437.2C-625 -467.1 -596.7 -485.6 -573.1 -507.7C-549.4 -529.8 -530.4 -555.3 -501.9 -566.5C-473.3 -577.6 -435.1 -574.3 -415.4 -601.8C-395.6 -629.2 -394.2 -687.3 -371.8 -708.4C-349.3 -729.4 -305.8 -713.4 -271.8 -716.6C-237.7 -719.8 -213 -742.2 -184 -746.5C-155 -750.7 -121.6 -736.7 -90.2 -742.5C-58.8 -748.4 -29.4 -774.2 0 -800L0 0Z" fill="#081b30"></path><path d="M-600 0C-603.9 -25.5 -607.7 -51 -592.6 -72C-577.6 -93 -543.6 -109.5 -533 -131.4C-522.5 -153.3 -535.5 -180.6 -527.9 -200.2C-520.3 -219.8 -492.1 -231.8 -482.4 -253.2C-472.6 -274.6 -481.3 -305.5 -475 -327.9C-468.7 -350.3 -447.5 -364.2 -429.8 -380.8C-412.1 -397.3 -397.8 -416.5 -376.4 -424.9C-355 -433.2 -326.4 -430.8 -311.5 -451.3C-296.7 -471.9 -295.7 -515.5 -278.8 -531.3C-262 -547.1 -229.4 -535 -203.8 -537.4C-178.3 -539.9 -159.8 -556.7 -138 -559.8C-116.2 -563 -91.2 -552.5 -67.6 -556.9C-44.1 -561.3 -22 -580.7 0 -600L0 0Z" fill="#05172a"></path><path d="M-400 0C-402.6 -17 -405.1 -34 -395.1 -48C-385 -62 -362.4 -73 -355.4 -87.6C-348.4 -102.2 -357 -120.4 -351.9 -133.5C-346.9 -146.6 -328.1 -154.5 -321.6 -168.8C-315.1 -183.1 -320.9 -203.7 -316.7 -218.6C-312.5 -233.5 -298.4 -242.8 -286.5 -253.8C-274.7 -264.9 -265.2 -277.7 -250.9 -283.2C-236.6 -288.8 -217.6 -287.2 -207.7 -300.9C-197.8 -314.6 -197.1 -343.7 -185.9 -354.2C-174.7 -364.7 -152.9 -356.7 -135.9 -358.3C-118.8 -359.9 -106.5 -371.1 -92 -373.2C-77.5 -375.3 -60.8 -368.3 -45.1 -371.3C-29.4 -374.2 -14.7 -387.1 0 -400L0 0Z" fill="#021325"></path><path d="M-200 0C-201.3 -8.5 -202.6 -17 -197.5 -24C-192.5 -31 -181.2 -36.5 -177.7 -43.8C-174.2 -51.1 -178.5 -60.2 -176 -66.7C-173.4 -73.3 -164 -77.3 -160.8 -84.4C-157.5 -91.5 -160.4 -101.8 -158.3 -109.3C-156.2 -116.8 -149.2 -121.4 -143.3 -126.9C-137.4 -132.4 -132.6 -138.8 -125.5 -141.6C-118.3 -144.4 -108.8 -143.6 -103.8 -150.4C-98.9 -157.3 -98.6 -171.8 -92.9 -177.1C-87.3 -182.4 -76.5 -178.3 -67.9 -179.1C-59.4 -180 -53.3 -185.6 -46 -186.6C-38.7 -187.7 -30.4 -184.2 -22.5 -185.6C-14.7 -187.1 -7.3 -193.6 0 -200L0 0Z" fill="#001122"></path></g><g transform="translate(0, 0)"><path d="M1000 0C969.2 38.3 938.4 76.5 915.3 111.1C892.2 145.8 876.9 176.8 885.5 218.3C894.1 259.7 926.8 311.7 917.3 347.9C907.7 384.1 856.1 404.5 832.3 436.8C808.6 469.2 812.8 513.5 806.5 556.7C800.2 599.9 783.3 642 744.8 659.8C706.2 677.6 645.9 671.1 606.8 684.9C567.6 698.7 549.6 732.8 523.8 758.8C497.9 784.8 464.2 802.6 433.1 825.2C402 847.8 373.5 875.2 342.2 902.3C310.9 929.4 276.9 956.3 239.3 970.9C201.8 985.6 160.8 987.9 120.3 990.7C79.8 993.5 39.9 996.8 0 1000L0 0Z" fill="#0c1e35"></path><path d="M800 0C775.3 30.6 750.7 61.2 732.2 88.9C713.8 116.6 701.5 141.4 708.4 174.6C715.3 207.8 741.4 249.3 733.8 278.3C726.2 307.2 684.8 323.6 665.9 349.5C646.9 375.4 650.3 410.8 645.2 445.4C640.2 479.9 626.7 513.6 595.8 527.8C565 542.1 516.7 536.9 485.4 547.9C454.1 558.9 439.7 586.2 419 607C398.3 627.8 371.4 642.1 346.5 660.2C321.6 678.3 298.8 700.1 273.8 721.8C248.7 743.5 221.5 765 191.5 776.8C161.4 788.5 128.6 790.3 96.2 792.6C63.9 794.8 31.9 797.4 0 800L0 0Z" fill="#081b30"></path><path d="M600 0C581.5 23 563 45.9 549.2 66.7C535.3 87.5 526.1 106.1 531.3 131C536.5 155.8 556.1 187 550.4 208.7C544.6 230.4 513.6 242.7 499.4 262.1C485.2 281.5 487.7 308.1 483.9 334C480.1 359.9 470 385.2 446.9 395.9C423.7 406.6 387.5 402.7 364.1 410.9C340.6 419.2 329.8 439.7 314.3 455.3C298.7 470.9 278.5 481.6 259.9 495.1C241.2 508.7 224.1 525.1 205.3 541.4C186.5 557.6 166.1 573.8 143.6 582.6C121.1 591.3 96.5 592.8 72.2 594.4C47.9 596.1 23.9 598.1 0 600L0 0Z" fill="#05172a"></path><path d="M400 0C387.7 15.3 375.3 30.6 366.1 44.5C356.9 58.3 350.7 70.7 354.2 87.3C357.7 103.9 370.7 124.7 366.9 139.1C363.1 153.6 342.4 161.8 332.9 174.7C323.4 187.7 325.1 205.4 322.6 222.7C320.1 240 313.3 256.8 297.9 263.9C282.5 271 258.4 268.4 242.7 274C227 279.5 219.8 293.1 209.5 303.5C199.2 313.9 185.7 321.1 173.2 330.1C160.8 339.1 149.4 350.1 136.9 360.9C124.4 371.8 110.7 382.5 95.7 388.4C80.7 394.2 64.3 395.2 48.1 396.3C31.9 397.4 16 398.7 0 400L0 0Z" fill="#021325"></path><path d="M200 0C193.8 7.7 187.7 15.3 183.1 22.2C178.4 29.2 175.4 35.4 177.1 43.7C178.8 51.9 185.4 62.3 183.5 69.6C181.5 76.8 171.2 80.9 166.5 87.4C161.7 93.8 162.6 102.7 161.3 111.3C160 120 156.7 128.4 149 132C141.2 135.5 129.2 134.2 121.4 137C113.5 139.7 109.9 146.6 104.8 151.8C99.6 157 92.8 160.5 86.6 165C80.4 169.6 74.7 175 68.4 180.5C62.2 185.9 55.4 191.3 47.9 194.2C40.4 197.1 32.2 197.6 24.1 198.1C16 198.7 8 199.4 0 200L0 0Z" fill="#001122"></path></g></svg>