<svg id="visual" viewBox="0 0 2000 1000" width="2000" height="1000" xmlns="http://www.w3.org/2000/svg" xmlns:xlink="http://www.w3.org/1999/xlink" version="1.1"><rect x="0" y="0" width="2000" height="1000" fill="#0e2038"></rect><defs><linearGradient id="grad1_0" x1="50%" y1="100%" x2="100%" y2="0%"><stop offset="10%" stop-color="#001122" stop-opacity="1"></stop><stop offset="90%" stop-color="#001122" stop-opacity="1"></stop></linearGradient></defs><defs><linearGradient id="grad1_1" x1="50%" y1="100%" x2="100%" y2="0%"><stop offset="10%" stop-color="#001122" stop-opacity="1"></stop><stop offset="90%" stop-color="#041527" stop-opacity="1"></stop></linearGradient></defs><defs><linearGradient id="grad1_2" x1="50%" y1="100%" x2="100%" y2="0%"><stop offset="10%" stop-color="#07192d" stop-opacity="1"></stop><stop offset="90%" stop-color="#041527" stop-opacity="1"></stop></linearGradient></defs><defs><linearGradient id="grad1_3" x1="50%" y1="100%" x2="100%" y2="0%"><stop offset="10%" stop-color="#07192d" stop-opacity="1"></stop><stop offset="90%" stop-color="#0a1c32" stop-opacity="1"></stop></linearGradient></defs><defs><linearGradient id="grad1_4" x1="50%" y1="100%" x2="100%" y2="0%"><stop offset="10%" stop-color="#0e2038" stop-opacity="1"></stop><stop offset="90%" stop-color="#0a1c32" stop-opacity="1"></stop></linearGradient></defs><defs><linearGradient id="grad2_0" x1="0%" y1="100%" x2="50%" y2="0%"><stop offset="10%" stop-color="#001122" stop-opacity="1"></stop><stop offset="90%" stop-color="#001122" stop-opacity="1"></stop></linearGradient></defs><defs><linearGradient id="grad2_1" x1="0%" y1="100%" x2="50%" y2="0%"><stop offset="10%" stop-color="#041527" stop-opacity="1"></stop><stop offset="90%" stop-color="#001122" stop-opacity="1"></stop></linearGradient></defs><defs><linearGradient id="grad2_2" x1="0%" y1="100%" x2="50%" y2="0%"><stop offset="10%" stop-color="#041527" stop-opacity="1"></stop><stop offset="90%" stop-color="#07192d" stop-opacity="1"></stop></linearGradient></defs><defs><linearGradient id="grad2_3" x1="0%" y1="100%" x2="50%" y2="0%"><stop offset="10%" stop-color="#0a1c32" stop-opacity="1"></stop><stop offset="90%" stop-color="#07192d" stop-opacity="1"></stop></linearGradient></defs><defs><linearGradient id="grad2_4" x1="0%" y1="100%" x2="50%" y2="0%"><stop offset="10%" stop-color="#0a1c32" stop-opacity="1"></stop><stop offset="90%" stop-color="#0e2038" stop-opacity="1"></stop></linearGradient></defs><g transform="translate(2000, 1000)"><path d="M-1000 0C-981.1 -37.5 -962.3 -75 -964.9 -117.2C-967.6 -159.3 -991.7 -206.2 -970 -239.1C-948.2 -272 -880.6 -290.9 -858.3 -325.5C-836.1 -360.2 -859.3 -410.5 -847.4 -444.7C-835.4 -479 -788.3 -497.1 -762.1 -526C-735.9 -554.9 -730.7 -594.7 -722.3 -639.9C-713.9 -685.2 -702.2 -736 -663.1 -748.5C-624 -761.1 -557.4 -735.4 -522.6 -757.1C-487.8 -778.9 -484.7 -848.1 -454 -865.1C-423.4 -882.1 -365.1 -846.8 -325.5 -858.3C-286 -869.8 -265.2 -928.1 -231.9 -940.8C-198.6 -953.6 -152.8 -920.9 -112.1 -923.2C-71.4 -925.5 -35.7 -962.8 0 -1000L0 0Z" fill="#0c1e35"></path><path d="M-800 0C-784.9 -30 -769.8 -60 -771.9 -93.7C-774 -127.5 -793.4 -164.9 -776 -191.3C-758.6 -217.6 -704.5 -232.7 -686.7 -260.4C-668.9 -288.1 -687.5 -328.4 -677.9 -355.8C-668.3 -383.2 -630.6 -397.7 -609.7 -420.8C-588.7 -444 -584.6 -475.7 -577.9 -511.9C-571.1 -548.1 -561.8 -588.8 -530.5 -598.8C-499.2 -608.9 -446 -588.3 -418.1 -605.7C-390.2 -623.1 -387.8 -678.5 -363.2 -692.1C-338.7 -705.7 -292.1 -677.5 -260.4 -686.7C-228.8 -695.9 -212.1 -742.5 -185.5 -752.7C-158.9 -762.9 -122.3 -736.7 -89.7 -738.6C-57.1 -740.4 -28.5 -770.2 0 -800L0 0Z" fill="#081b30"></path><path d="M-600 0C-588.7 -22.5 -577.4 -45 -578.9 -70.3C-580.5 -95.6 -595 -123.7 -582 -143.4C-568.9 -163.2 -528.3 -174.5 -515 -195.3C-501.7 -216.1 -515.6 -246.3 -508.4 -266.8C-501.2 -287.4 -473 -298.3 -457.2 -315.6C-441.5 -333 -438.4 -356.8 -433.4 -383.9C-428.3 -411.1 -421.3 -441.6 -397.9 -449.1C-374.4 -456.6 -334.5 -441.2 -313.6 -454.3C-292.7 -467.3 -290.8 -508.9 -272.4 -519.1C-254 -529.2 -219 -508.1 -195.3 -515C-171.6 -521.9 -159.1 -556.8 -139.1 -564.5C-119.2 -572.2 -91.7 -552.6 -67.3 -553.9C-42.8 -555.3 -21.4 -577.7 0 -600L0 0Z" fill="#05172a"></path><path d="M-400 0C-392.5 -15 -384.9 -30 -386 -46.9C-387 -63.7 -396.7 -82.5 -388 -95.6C-379.3 -108.8 -352.2 -116.4 -343.3 -130.2C-334.5 -144.1 -343.7 -164.2 -339 -177.9C-334.2 -191.6 -315.3 -198.8 -304.8 -210.4C-294.4 -222 -292.3 -237.9 -288.9 -256C-285.6 -274.1 -280.9 -294.4 -265.2 -299.4C-249.6 -304.4 -223 -294.2 -209 -302.9C-195.1 -311.6 -193.9 -339.2 -181.6 -346C-169.3 -352.8 -146 -338.7 -130.2 -343.3C-114.4 -347.9 -106.1 -371.2 -92.8 -376.3C-79.4 -381.4 -61.1 -368.4 -44.8 -369.3C-28.5 -370.2 -14.3 -385.1 0 -400L0 0Z" fill="#021325"></path><path d="M-200 0C-196.2 -7.5 -192.5 -15 -193 -23.4C-193.5 -31.9 -198.3 -41.2 -194 -47.8C-189.6 -54.4 -176.1 -58.2 -171.7 -65.1C-167.2 -72 -171.9 -82.1 -169.5 -88.9C-167.1 -95.8 -157.7 -99.4 -152.4 -105.2C-147.2 -111 -146.1 -118.9 -144.5 -128C-142.8 -137 -140.4 -147.2 -132.6 -149.7C-124.8 -152.2 -111.5 -147.1 -104.5 -151.4C-97.6 -155.8 -96.9 -169.6 -90.8 -173C-84.7 -176.4 -73 -169.4 -65.1 -171.7C-57.2 -174 -53 -185.6 -46.4 -188.2C-39.7 -190.7 -30.6 -184.2 -22.4 -184.6C-14.3 -185.1 -7.1 -192.6 0 -200L0 0Z" fill="#001122"></path></g><g transform="translate(0, 0)"><path d="M1000 0C973.6 38.6 947.1 77.2 922.2 112C897.3 146.7 874 177.6 873.8 215.4C873.7 253.2 896.6 298 907.9 344.3C919.2 390.7 918.7 438.6 885.5 464.7C852.2 490.9 786 495.3 752.2 519.2C718.4 543.1 716.8 586.6 701.4 621.3C685.9 656.1 656.5 682.1 629.3 710.3C602.1 738.5 577 768.9 543.6 787.6C510.2 806.3 468.5 813.3 429.9 819C391.2 824.7 355.6 829.1 324.8 856.5C294 883.9 268.1 934.3 232.9 944.7C197.6 955.2 153.1 925.6 112.7 928.2C72.3 930.7 36.2 965.4 0 1000L0 0Z" fill="#0c1e35"></path><path d="M800 0C778.8 30.9 757.7 61.8 737.8 89.6C717.9 117.4 699.2 142.1 699.1 172.3C698.9 202.6 717.3 238.4 726.3 275.5C735.3 312.5 735 350.9 708.4 371.8C681.7 392.7 628.8 396.2 601.8 415.4C574.7 434.5 573.5 469.3 561.1 497.1C548.7 524.9 525.2 545.7 503.4 568.3C481.7 590.8 461.6 615.1 434.9 630.1C408.2 645 374.8 650.7 343.9 655.2C313 659.8 284.5 663.3 259.9 685.2C235.2 707.1 214.5 747.4 186.3 755.8C158.1 764.1 122.4 740.5 90.2 742.5C57.9 744.6 28.9 772.3 0 800L0 0Z" fill="#081b30"></path><path d="M600 0C584.1 23.2 568.3 46.3 553.3 67.2C538.4 88 524.4 106.5 524.3 129.2C524.2 151.9 538 178.8 544.7 206.6C551.5 234.4 551.2 263.1 531.3 278.8C511.3 294.5 471.6 297.2 451.3 311.5C431 325.9 430.1 352 420.8 372.8C411.5 393.7 393.9 409.3 377.6 426.2C361.3 443.1 346.2 461.3 326.2 472.6C306.1 483.8 281.1 488 257.9 491.4C234.7 494.8 213.4 497.5 194.9 513.9C176.4 530.3 160.9 560.6 139.7 566.8C118.6 573.1 91.8 555.4 67.6 556.9C43.4 558.4 21.7 579.2 0 600L0 0Z" fill="#05172a"></path><path d="M400 0C389.4 15.4 378.8 30.9 368.9 44.8C358.9 58.7 349.6 71 349.5 86.2C349.5 101.3 358.7 119.2 363.2 137.7C367.7 156.3 367.5 175.4 354.2 185.9C340.9 196.4 314.4 198.1 300.9 207.7C287.3 217.3 286.7 234.6 280.5 248.5C274.4 262.4 262.6 272.9 251.7 284.1C240.8 295.4 230.8 307.6 217.5 315C204.1 322.5 187.4 325.3 171.9 327.6C156.5 329.9 142.2 331.6 129.9 342.6C117.6 353.5 107.2 373.7 93.1 377.9C79 382.1 61.2 370.3 45.1 371.3C28.9 372.3 14.5 386.1 0 400L0 0Z" fill="#021325"></path><path d="M200 0C194.7 7.7 189.4 15.4 184.4 22.4C179.5 29.3 174.8 35.5 174.8 43.1C174.7 50.6 179.3 59.6 181.6 68.9C183.8 78.1 183.7 87.7 177.1 92.9C170.4 98.2 157.2 99.1 150.4 103.8C143.7 108.6 143.4 117.3 140.3 124.3C137.2 131.2 131.3 136.4 125.9 142.1C120.4 147.7 115.4 153.8 108.7 157.5C102 161.3 93.7 162.7 86 163.8C78.2 164.9 71.1 165.8 65 171.3C58.8 176.8 53.6 186.9 46.6 188.9C39.5 191 30.6 185.1 22.5 185.6C14.5 186.1 7.2 193.1 0 200L0 0Z" fill="#001122"></path></g></svg>