<svg id="visual" viewBox="0 0 2000 1000" width="2000" height="1000" xmlns="http://www.w3.org/2000/svg" xmlns:xlink="http://www.w3.org/1999/xlink" version="1.1"><rect x="0" y="0" width="2000" height="1000" fill="#0e2038"></rect><defs><linearGradient id="grad1_0" x1="50%" y1="100%" x2="100%" y2="0%"><stop offset="10%" stop-color="#001122" stop-opacity="1"></stop><stop offset="90%" stop-color="#001122" stop-opacity="1"></stop></linearGradient></defs><defs><linearGradient id="grad1_1" x1="50%" y1="100%" x2="100%" y2="0%"><stop offset="10%" stop-color="#001122" stop-opacity="1"></stop><stop offset="90%" stop-color="#041527" stop-opacity="1"></stop></linearGradient></defs><defs><linearGradient id="grad1_2" x1="50%" y1="100%" x2="100%" y2="0%"><stop offset="10%" stop-color="#07192d" stop-opacity="1"></stop><stop offset="90%" stop-color="#041527" stop-opacity="1"></stop></linearGradient></defs><defs><linearGradient id="grad1_3" x1="50%" y1="100%" x2="100%" y2="0%"><stop offset="10%" stop-color="#07192d" stop-opacity="1"></stop><stop offset="90%" stop-color="#0a1c32" stop-opacity="1"></stop></linearGradient></defs><defs><linearGradient id="grad1_4" x1="50%" y1="100%" x2="100%" y2="0%"><stop offset="10%" stop-color="#0e2038" stop-opacity="1"></stop><stop offset="90%" stop-color="#0a1c32" stop-opacity="1"></stop></linearGradient></defs><defs><linearGradient id="grad2_0" x1="0%" y1="100%" x2="50%" y2="0%"><stop offset="10%" stop-color="#001122" stop-opacity="1"></stop><stop offset="90%" stop-color="#001122" stop-opacity="1"></stop></linearGradient></defs><defs><linearGradient id="grad2_1" x1="0%" y1="100%" x2="50%" y2="0%"><stop offset="10%" stop-color="#041527" stop-opacity="1"></stop><stop offset="90%" stop-color="#001122" stop-opacity="1"></stop></linearGradient></defs><defs><linearGradient id="grad2_2" x1="0%" y1="100%" x2="50%" y2="0%"><stop offset="10%" stop-color="#041527" stop-opacity="1"></stop><stop offset="90%" stop-color="#07192d" stop-opacity="1"></stop></linearGradient></defs><defs><linearGradient id="grad2_3" x1="0%" y1="100%" x2="50%" y2="0%"><stop offset="10%" stop-color="#0a1c32" stop-opacity="1"></stop><stop offset="90%" stop-color="#07192d" stop-opacity="1"></stop></linearGradient></defs><defs><linearGradient id="grad2_4" x1="0%" y1="100%" x2="50%" y2="0%"><stop offset="10%" stop-color="#0a1c32" stop-opacity="1"></stop><stop offset="90%" stop-color="#0e2038" stop-opacity="1"></stop></linearGradient></defs><g transform="translate(2000, 1000)"><path d="M-1000 0C-1004.3 -41.6 -1008.6 -83.1 -991.7 -120.4C-974.8 -157.7 -936.6 -190.7 -918.5 -226.4C-900.4 -262.1 -902.3 -300.6 -903.2 -342.5C-904.2 -384.5 -904.1 -430 -882.8 -463.3C-861.5 -496.7 -818.9 -517.9 -781 -539.1C-743.1 -560.3 -710 -581.3 -679.6 -602.1C-649.3 -622.9 -621.6 -643.4 -606.8 -684.9C-591.9 -726.4 -589.7 -788.8 -561.8 -813.9C-533.9 -839 -480.2 -826.8 -443.8 -845.6C-407.4 -864.4 -388.2 -914.2 -354.6 -935C-321 -955.9 -273 -947.8 -229.3 -930.2C-185.6 -912.5 -146.2 -885.4 -108.7 -895.4C-71.2 -905.5 -35.6 -952.7 0 -1000L0 0Z" fill="#0c1e35"></path><path d="M-800 0C-803.5 -33.3 -806.9 -66.5 -793.4 -96.3C-779.8 -126.2 -749.3 -152.5 -734.8 -181.1C-720.3 -209.7 -721.8 -240.5 -722.6 -274C-723.3 -307.6 -723.3 -344 -706.2 -370.7C-689.2 -397.3 -655.1 -414.3 -624.8 -431.3C-594.5 -448.2 -568 -465.1 -543.7 -481.7C-519.4 -498.3 -497.3 -514.7 -485.4 -547.9C-473.5 -581.1 -471.8 -631.1 -449.5 -651.1C-427.1 -671.2 -384.2 -661.5 -355 -676.5C-325.9 -691.5 -310.6 -731.3 -283.7 -748C-256.8 -764.7 -218.4 -758.2 -183.4 -744.1C-148.5 -730 -117 -708.3 -87 -716.3C-57 -724.4 -28.5 -762.2 0 -800L0 0Z" fill="#081b30"></path><path d="M-600 0C-602.6 -24.9 -605.2 -49.9 -595 -72.2C-584.9 -94.6 -562 -114.4 -551.1 -135.8C-540.2 -157.3 -541.4 -180.4 -541.9 -205.5C-542.5 -230.7 -542.5 -258 -529.7 -278C-516.9 -298 -491.3 -310.8 -468.6 -323.5C-445.9 -336.2 -426 -348.8 -407.8 -361.3C-389.6 -373.7 -373 -386 -364.1 -410.9C-355.1 -435.8 -353.8 -473.3 -337.1 -488.4C-320.3 -503.4 -288.1 -496.1 -266.3 -507.4C-244.4 -518.6 -232.9 -548.5 -212.8 -561C-192.6 -573.5 -163.8 -568.7 -137.6 -558.1C-111.3 -547.5 -87.7 -531.2 -65.2 -537.3C-42.7 -543.3 -21.4 -571.6 0 -600L0 0Z" fill="#05172a"></path><path d="M-400 0C-401.7 -16.6 -403.5 -33.3 -396.7 -48.2C-389.9 -63.1 -374.7 -76.3 -367.4 -90.6C-360.2 -104.8 -360.9 -120.2 -361.3 -137C-361.7 -153.8 -361.6 -172 -353.1 -185.3C-344.6 -198.7 -327.6 -207.2 -312.4 -215.6C-297.3 -224.1 -284 -232.5 -271.9 -240.8C-259.7 -249.2 -248.7 -257.4 -242.7 -274C-236.7 -290.5 -235.9 -315.5 -224.7 -325.6C-213.6 -335.6 -192.1 -330.7 -177.5 -338.2C-163 -345.8 -155.3 -365.7 -141.8 -374C-128.4 -382.3 -109.2 -379.1 -91.7 -372.1C-74.2 -365 -58.5 -354.1 -43.5 -358.2C-28.5 -362.2 -14.2 -381.1 0 -400L0 0Z" fill="#021325"></path><path d="M-200 0C-200.9 -8.3 -201.7 -16.6 -198.3 -24.1C-195 -31.5 -187.3 -38.1 -183.7 -45.3C-180.1 -52.4 -180.5 -60.1 -180.6 -68.5C-180.8 -76.9 -180.8 -86 -176.6 -92.7C-172.3 -99.3 -163.8 -103.6 -156.2 -107.8C-148.6 -112.1 -142 -116.3 -135.9 -120.4C-129.9 -124.6 -124.3 -128.7 -121.4 -137C-118.4 -145.3 -117.9 -157.8 -112.4 -162.8C-106.8 -167.8 -96 -165.4 -88.8 -169.1C-81.5 -172.9 -77.6 -182.8 -70.9 -187C-64.2 -191.2 -54.6 -189.6 -45.9 -186C-37.1 -182.5 -29.2 -177.1 -21.7 -179.1C-14.2 -181.1 -7.1 -190.5 0 -200L0 0Z" fill="#001122"></path></g><g transform="translate(0, 0)"><path d="M1000 0C996 40.8 991.9 81.6 976.8 118.6C961.7 155.6 935.6 188.8 930.2 229.3C924.8 269.8 940.1 317.6 917.3 347.9C894.4 378.1 833.2 390.8 816.4 428.5C799.5 466.1 827 528.7 803.2 554.4C779.5 580.1 704.5 568.9 677.4 600.1C650.3 631.4 671.1 705.2 650.5 734.3C630 763.4 568 747.8 535.1 775.3C502.2 802.7 498.3 873.3 464.7 885.5C431.1 897.6 367.8 851.3 327.3 863C286.8 874.8 269.3 944.6 236.2 958.3C203.1 972 154.5 929.6 112.6 927.2C70.6 924.8 35.3 962.4 0 1000L0 0Z" fill="#0c1e35"></path><path d="M800 0C796.8 32.6 793.5 65.3 781.5 94.9C769.4 124.5 748.4 151 744.1 183.4C739.8 215.8 752.1 254.1 733.8 278.3C715.5 302.5 666.6 312.7 653.1 342.8C639.6 372.9 661.6 423 642.6 443.5C623.6 464.1 563.6 455.1 541.9 480.1C520.2 505.1 536.9 564.2 520.4 587.4C504 610.7 454.4 598.2 428.1 620.2C401.8 642.2 398.7 698.7 371.8 708.4C344.9 718.1 294.2 681 261.8 690.4C229.5 699.8 215.4 755.7 189 766.7C162.5 777.6 123.6 743.7 90.1 741.8C56.5 739.8 28.3 769.9 0 800L0 0Z" fill="#081b30"></path><path d="M600 0C597.6 24.5 595.2 49 586.1 71.2C577 93.4 561.3 113.3 558.1 137.6C554.9 161.9 564.1 190.6 550.4 208.7C536.6 226.9 499.9 234.5 489.8 257.1C479.7 279.7 496.2 317.2 481.9 332.7C467.7 348.1 422.7 341.3 406.4 360.1C390.2 378.8 402.7 423.1 390.3 440.6C378 458 340.8 448.7 321.1 465.2C301.3 481.6 299 524 278.8 531.3C258.7 538.6 220.7 510.8 196.4 517.8C172.1 524.9 161.6 566.8 141.7 575C121.9 583.2 92.7 557.8 67.5 556.3C42.4 554.9 21.2 577.4 0 600L0 0Z" fill="#05172a"></path><path d="M400 0C398.4 16.3 396.8 32.6 390.7 47.4C384.7 62.2 374.2 75.5 372.1 91.7C369.9 107.9 376.1 127 366.9 139.1C357.7 151.3 333.3 156.3 326.6 171.4C319.8 186.5 330.8 211.5 321.3 221.8C311.8 232 281.8 227.5 271 240.1C260.1 252.6 268.4 282.1 260.2 293.7C252 305.4 227.2 299.1 214 310.1C200.9 321.1 199.3 349.3 185.9 354.2C172.4 359 147.1 340.5 130.9 345.2C114.7 349.9 107.7 377.8 94.5 383.3C81.3 388.8 61.8 371.8 45 370.9C28.3 369.9 14.1 385 0 400L0 0Z" fill="#021325"></path><path d="M200 0C199.2 8.2 198.4 16.3 195.4 23.7C192.3 31.1 187.1 37.8 186 45.9C185 54 188 63.5 183.5 69.6C178.9 75.6 166.6 78.2 163.3 85.7C159.9 93.2 165.4 105.7 160.6 110.9C155.9 116 140.9 113.8 135.5 120C130.1 126.3 134.2 141 130.1 146.9C126 152.7 113.6 149.6 107 155.1C100.4 160.5 99.7 174.7 92.9 177.1C86.2 179.5 73.6 170.3 65.5 172.6C57.4 175 53.9 188.9 47.2 191.7C40.6 194.4 30.9 185.9 22.5 185.4C14.1 185 7.1 192.5 0 200L0 0Z" fill="#001122"></path></g></svg>