<svg id="visual" viewBox="0 0 900 600" width="900" height="600" xmlns="http://www.w3.org/2000/svg" xmlns:xlink="http://www.w3.org/1999/xlink" version="1.1"><g stroke-width="1" stroke-linejoin="bevel"><path d="M414 478L480 600L592 477Z" fill="#15263d" stroke="#15263d"></path><path d="M480 600L734 600L592 477Z" fill="#12243b" stroke="#12243b"></path><path d="M294 139L226 348L414 478Z" fill="#15263d" stroke="#15263d"></path><path d="M414 478L133 600L480 600Z" fill="#1a2b41" stroke="#1a2b41"></path><path d="M226 348L133 600L414 478Z" fill="#15263d" stroke="#15263d"></path><path d="M753 154L516 116L592 477Z" fill="#1a2b41" stroke="#1a2b41"></path><path d="M592 477L516 116L414 478Z" fill="#11223a" stroke="#11223a"></path><path d="M734 600L900 457L592 477Z" fill="#17283f" stroke="#17283f"></path><path d="M734 600L900 600L900 457Z" fill="#11223a" stroke="#11223a"></path><path d="M516 116L294 139L414 478Z" fill="#12243b" stroke="#12243b"></path><path d="M226 348L0 471L133 600Z" fill="#12243b" stroke="#12243b"></path><path d="M900 252L753 154L592 477Z" fill="#17283f" stroke="#17283f"></path><path d="M900 457L900 252L592 477Z" fill="#192a40" stroke="#192a40"></path><path d="M0 110L0 471L226 348Z" fill="#14253c" stroke="#14253c"></path><path d="M0 471L0 600L133 600Z" fill="#1a2b41" stroke="#1a2b41"></path><path d="M703 0L428 0L516 116Z" fill="#192a40" stroke="#192a40"></path><path d="M516 116L428 0L294 139Z" fill="#16273e" stroke="#16273e"></path><path d="M900 0L703 0L753 154Z" fill="#1a2b41" stroke="#1a2b41"></path><path d="M753 154L703 0L516 116Z" fill="#0e2038" stroke="#0e2038"></path><path d="M294 139L0 110L226 348Z" fill="#14253c" stroke="#14253c"></path><path d="M428 0L217 0L294 139Z" fill="#1a2b41" stroke="#1a2b41"></path><path d="M217 0L0 110L294 139Z" fill="#1b2c42" stroke="#1b2c42"></path><path d="M900 252L900 0L753 154Z" fill="#15263d" stroke="#15263d"></path><path d="M217 0L0 0L0 110Z" fill="#192a40" stroke="#192a40"></path></g></svg>