<svg id="visual" viewBox="0 0 900 500" width="900" height="500" xmlns="http://www.w3.org/2000/svg" xmlns:xlink="http://www.w3.org/1999/xlink" version="1.1"><rect x="0" y="0" width="900" height="500" fill="#445b7c"></rect><path d="M0 349L6.5 322.7C13 296.3 26 243.7 39 202.5C52 161.3 65 131.7 78 180.7C91 229.7 104 357.3 117.2 419C130.3 480.7 143.7 476.3 156.8 442.3C170 408.3 183 344.7 196 331.8C209 319 222 357 235 356.3C248 355.7 261 316.3 274 317.2C287 318 300 359 313 332.5C326 306 339 212 352 204C365 196 378 274 391 312C404 350 417 348 430.2 364C443.3 380 456.7 414 469.8 410.8C483 407.7 496 367.3 509 363.7C522 360 535 393 548 386C561 379 574 332 587 340.3C600 348.7 613 412.3 626 391.2C639 370 652 264 665 245C678 226 691 294 704 284.7C717 275.3 730 188.7 743.2 198.8C756.3 209 769.7 316 782.8 355C796 394 809 365 822 333.5C835 302 848 268 861 266.3C874 264.7 887 295.3 893.5 310.7L900 326L900 0L893.5 0C887 0 874 0 861 0C848 0 835 0 822 0C809 0 796 0 782.8 0C769.7 0 756.3 0 743.2 0C730 0 717 0 704 0C691 0 678 0 665 0C652 0 639 0 626 0C613 0 600 0 587 0C574 0 561 0 548 0C535 0 522 0 509 0C496 0 483 0 469.8 0C456.7 0 443.3 0 430.2 0C417 0 404 0 391 0C378 0 365 0 352 0C339 0 326 0 313 0C300 0 287 0 274 0C261 0 248 0 235 0C222 0 209 0 196 0C183 0 170 0 156.8 0C143.7 0 130.3 0 117.2 0C104 0 91 0 78 0C65 0 52 0 39 0C26 0 13 0 6.5 0L0 0Z" fill="#486081"></path><path d="M0 143L6.5 161.2C13 179.3 26 215.7 39 242.8C52 270 65 288 78 277.5C91 267 104 228 117.2 220.7C130.3 213.3 143.7 237.7 156.8 263.8C170 290 183 318 196 288.7C209 259.3 222 172.7 235 138.5C248 104.3 261 122.7 274 174.3C287 226 300 311 313 332.2C326 353.3 339 310.7 352 310.5C365 310.3 378 352.7 391 347C404 341.3 417 287.7 430.2 247.8C443.3 208 456.7 182 469.8 199C483 216 496 276 509 285.7C522 295.3 535 254.7 548 242.7C561 230.7 574 247.3 587 266C600 284.7 613 305.3 626 311.5C639 317.7 652 309.3 665 310.2C678 311 691 321 704 324.7C717 328.3 730 325.7 743.2 321.5C756.3 317.3 769.7 311.7 782.8 274.8C796 238 809 170 822 173C835 176 848 250 861 266C874 282 887 240 893.5 219L900 198L900 0L893.5 0C887 0 874 0 861 0C848 0 835 0 822 0C809 0 796 0 782.8 0C769.7 0 756.3 0 743.2 0C730 0 717 0 704 0C691 0 678 0 665 0C652 0 639 0 626 0C613 0 600 0 587 0C574 0 561 0 548 0C535 0 522 0 509 0C496 0 483 0 469.8 0C456.7 0 443.3 0 430.2 0C417 0 404 0 391 0C378 0 365 0 352 0C339 0 326 0 313 0C300 0 287 0 274 0C261 0 248 0 235 0C222 0 209 0 196 0C183 0 170 0 156.8 0C143.7 0 130.3 0 117.2 0C104 0 91 0 78 0C65 0 52 0 39 0C26 0 13 0 6.5 0L0 0Z" fill="#526988"></path><path d="M0 70L6.5 82.2C13 94.3 26 118.7 39 124.7C52 130.7 65 118.3 78 147C91 175.7 104 245.3 117.2 240C130.3 234.7 143.7 154.3 156.8 131.8C170 109.3 183 144.7 196 162.5C209 180.3 222 180.7 235 186.8C248 193 261 205 274 188.3C287 171.7 300 126.3 313 112.7C326 99 339 117 352 145.7C365 174.3 378 213.7 391 202.2C404 190.7 417 128.3 430.2 137.2C443.3 146 456.7 226 469.8 261.7C483 297.3 496 288.7 509 265.7C522 242.7 535 205.3 548 212.7C561 220 574 272 587 279.3C600 286.7 613 249.3 626 223.3C639 197.3 652 182.7 665 163.8C678 145 691 122 704 133.3C717 144.7 730 190.3 743.2 215.8C756.3 241.3 769.7 246.7 782.8 236.5C796 226.3 809 200.7 822 170C835 139.3 848 103.7 861 127.2C874 150.7 887 233.3 893.5 274.7L900 316L900 0L893.5 0C887 0 874 0 861 0C848 0 835 0 822 0C809 0 796 0 782.8 0C769.7 0 756.3 0 743.2 0C730 0 717 0 704 0C691 0 678 0 665 0C652 0 639 0 626 0C613 0 600 0 587 0C574 0 561 0 548 0C535 0 522 0 509 0C496 0 483 0 469.8 0C456.7 0 443.3 0 430.2 0C417 0 404 0 391 0C378 0 365 0 352 0C339 0 326 0 313 0C300 0 287 0 274 0C261 0 248 0 235 0C222 0 209 0 196 0C183 0 170 0 156.8 0C143.7 0 130.3 0 117.2 0C104 0 91 0 78 0C65 0 52 0 39 0C26 0 13 0 6.5 0L0 0Z" fill="#5c728f"></path><path d="M0 177L6.5 162C13 147 26 117 39 106.5C52 96 65 105 78 114.7C91 124.3 104 134.7 117.2 134.5C130.3 134.3 143.7 123.7 156.8 130.3C170 137 183 161 196 154C209 147 222 109 235 113.7C248 118.3 261 165.7 274 166C287 166.3 300 119.7 313 95.8C326 72 339 71 352 83.7C365 96.3 378 122.7 391 143C404 163.3 417 177.7 430.2 168.8C443.3 160 456.7 128 469.8 112.2C483 96.3 496 96.7 509 103.2C522 109.7 535 122.3 548 122.8C561 123.3 574 111.7 587 98.3C600 85 613 70 626 61.3C639 52.7 652 50.3 665 75.3C678 100.3 691 152.7 704 170C717 187.3 730 169.7 743.2 151.2C756.3 132.7 769.7 113.3 782.8 127.7C796 142 809 190 822 209.7C835 229.3 848 220.7 861 186.7C874 152.7 887 93.3 893.5 63.7L900 34L900 0L893.5 0C887 0 874 0 861 0C848 0 835 0 822 0C809 0 796 0 782.8 0C769.7 0 756.3 0 743.2 0C730 0 717 0 704 0C691 0 678 0 665 0C652 0 639 0 626 0C613 0 600 0 587 0C574 0 561 0 548 0C535 0 522 0 509 0C496 0 483 0 469.8 0C456.7 0 443.3 0 430.2 0C417 0 404 0 391 0C378 0 365 0 352 0C339 0 326 0 313 0C300 0 287 0 274 0C261 0 248 0 235 0C222 0 209 0 196 0C183 0 170 0 156.8 0C143.7 0 130.3 0 117.2 0C104 0 91 0 78 0C65 0 52 0 39 0C26 0 13 0 6.5 0L0 0Z" fill="#667b96"></path><path d="M0 48L6.5 46C13 44 26 40 39 50.7C52 61.3 65 86.7 78 107.3C91 128 104 144 117.2 132C130.3 120 143.7 80 156.8 65.7C170 51.3 183 62.7 196 81.5C209 100.3 222 126.7 235 134.5C248 142.3 261 131.7 274 118.7C287 105.7 300 90.3 313 90.2C326 90 339 105 352 94.8C365 84.7 378 49.3 391 42.2C404 35 417 56 430.2 53.8C443.3 51.7 456.7 26.3 469.8 20.2C483 14 496 27 509 52C522 77 535 114 548 133.8C561 153.7 574 156.3 587 154.5C600 152.7 613 146.3 626 129.8C639 113.3 652 86.7 665 63.3C678 40 691 20 704 17.8C717 15.7 730 31.3 743.2 36.3C756.3 41.3 769.7 35.7 782.8 29.2C796 22.7 809 15.3 822 36.2C835 57 848 106 861 130.7C874 155.3 887 155.7 893.5 155.8L900 156L900 0L893.5 0C887 0 874 0 861 0C848 0 835 0 822 0C809 0 796 0 782.8 0C769.7 0 756.3 0 743.2 0C730 0 717 0 704 0C691 0 678 0 665 0C652 0 639 0 626 0C613 0 600 0 587 0C574 0 561 0 548 0C535 0 522 0 509 0C496 0 483 0 469.8 0C456.7 0 443.3 0 430.2 0C417 0 404 0 391 0C378 0 365 0 352 0C339 0 326 0 313 0C300 0 287 0 274 0C261 0 248 0 235 0C222 0 209 0 196 0C183 0 170 0 156.8 0C143.7 0 130.3 0 117.2 0C104 0 91 0 78 0C65 0 52 0 39 0C26 0 13 0 6.5 0L0 0Z" fill="#71849e"></path></svg>