<svg id="visual" viewBox="0 0 900 600" width="900" height="600" xmlns="http://www.w3.org/2000/svg" xmlns:xlink="http://www.w3.org/1999/xlink" version="1.1"><rect x="0" y="0" width="900" height="600" fill="#000000"></rect><path d="M0 579L39 473L78 562L117 531L157 573L196 541L235 474L274 557L313 528L352 478L391 569L430 539L470 461L509 498L548 494L587 557L626 487L665 553L704 580L743 492L783 569L822 569L861 585L900 509L900 0L861 0L822 0L783 0L743 0L704 0L665 0L626 0L587 0L548 0L509 0L470 0L430 0L391 0L352 0L313 0L274 0L235 0L196 0L157 0L117 0L78 0L39 0L0 0Z" fill="#140c00"></path><path d="M0 528L39 493L78 532L117 469L157 481L196 505L235 472L274 539L313 534L352 434L391 439L430 458L470 481L509 517L548 472L587 450L626 520L665 434L704 448L743 531L783 419L822 459L861 460L900 438L900 0L861 0L822 0L783 0L743 0L704 0L665 0L626 0L587 0L548 0L509 0L470 0L430 0L391 0L352 0L313 0L274 0L235 0L196 0L157 0L117 0L78 0L39 0L0 0Z" fill="#1a1100"></path><path d="M0 500L39 471L78 404L117 483L157 404L196 464L235 505L274 376L313 415L352 430L391 460L430 445L470 446L509 485L548 413L587 427L626 441L665 485L704 400L743 428L783 466L822 445L861 391L900 478L900 0L861 0L822 0L783 0L743 0L704 0L665 0L626 0L587 0L548 0L509 0L470 0L430 0L391 0L352 0L313 0L274 0L235 0L196 0L157 0L117 0L78 0L39 0L0 0Z" fill="#1f1501"></path><path d="M0 360L39 344L78 431L117 385L157 453L196 345L235 460L274 354L313 436L352 355L391 350L430 421L470 368L509 393L548 400L587 398L626 357L665 390L704 342L743 390L783 385L822 447L861 445L900 394L900 0L861 0L822 0L783 0L743 0L704 0L665 0L626 0L587 0L548 0L509 0L470 0L430 0L391 0L352 0L313 0L274 0L235 0L196 0L157 0L117 0L78 0L39 0L0 0Z" fill="#241801"></path><path d="M0 414L39 314L78 403L117 320L157 298L196 336L235 369L274 411L313 335L352 410L391 316L430 394L470 366L509 307L548 362L587 398L626 392L665 407L704 375L743 368L783 388L822 319L861 345L900 358L900 0L861 0L822 0L783 0L743 0L704 0L665 0L626 0L587 0L548 0L509 0L470 0L430 0L391 0L352 0L313 0L274 0L235 0L196 0L157 0L117 0L78 0L39 0L0 0Z" fill="#2a1b02"></path><path d="M0 283L39 363L78 288L117 279L157 301L196 316L235 311L274 291L313 258L352 324L391 326L430 296L470 325L509 251L548 350L587 360L626 280L665 333L704 309L743 317L783 357L822 300L861 358L900 322L900 0L861 0L822 0L783 0L743 0L704 0L665 0L626 0L587 0L548 0L509 0L470 0L430 0L391 0L352 0L313 0L274 0L235 0L196 0L157 0L117 0L78 0L39 0L0 0Z" fill="#2f1e02"></path><path d="M0 234L39 210L78 228L117 258L157 247L196 243L235 248L274 298L313 256L352 256L391 294L430 243L470 239L509 227L548 301L587 244L626 249L665 301L704 284L743 292L783 244L822 219L861 228L900 208L900 0L861 0L822 0L783 0L743 0L704 0L665 0L626 0L587 0L548 0L509 0L470 0L430 0L391 0L352 0L313 0L274 0L235 0L196 0L157 0L117 0L78 0L39 0L0 0Z" fill="#352202"></path><path d="M0 273L39 220L78 256L117 214L157 188L196 221L235 178L274 172L313 184L352 199L391 206L430 169L470 210L509 186L548 168L587 187L626 236L665 175L704 246L743 273L783 225L822 167L861 249L900 168L900 0L861 0L822 0L783 0L743 0L704 0L665 0L626 0L587 0L548 0L509 0L470 0L430 0L391 0L352 0L313 0L274 0L235 0L196 0L157 0L117 0L78 0L39 0L0 0Z" fill="#3b2502"></path><path d="M0 130L39 178L78 208L117 227L157 128L196 219L235 227L274 156L313 142L352 168L391 188L430 225L470 216L509 162L548 176L587 128L626 222L665 174L704 128L743 219L783 218L822 207L861 169L900 137L900 0L861 0L822 0L783 0L743 0L704 0L665 0L626 0L587 0L548 0L509 0L470 0L430 0L391 0L352 0L313 0L274 0L235 0L196 0L157 0L117 0L78 0L39 0L0 0Z" fill="#402802"></path><path d="M0 139L39 85L78 183L117 92L157 159L196 140L235 160L274 172L313 141L352 160L391 133L430 114L470 171L509 87L548 166L587 130L626 91L665 137L704 141L743 174L783 109L822 150L861 113L900 123L900 0L861 0L822 0L783 0L743 0L704 0L665 0L626 0L587 0L548 0L509 0L470 0L430 0L391 0L352 0L313 0L274 0L235 0L196 0L157 0L117 0L78 0L39 0L0 0Z" fill="#472b01"></path><path d="M0 66L39 133L78 110L117 82L157 63L196 93L235 71L274 60L313 42L352 75L391 42L430 42L470 69L509 130L548 88L587 56L626 123L665 88L704 121L743 76L783 82L822 59L861 71L900 111L900 0L861 0L822 0L783 0L743 0L704 0L665 0L626 0L587 0L548 0L509 0L470 0L430 0L391 0L352 0L313 0L274 0L235 0L196 0L157 0L117 0L78 0L39 0L0 0Z" fill="#4d2f01"></path><path d="M0 45L39 47L78 79L117 27L157 29L196 71L235 30L274 88L313 54L352 35L391 2L430 57L470 23L509 39L548 33L587 51L626 80L665 44L704 58L743 87L783 72L822 91L861 75L900 82L900 0L861 0L822 0L783 0L743 0L704 0L665 0L626 0L587 0L548 0L509 0L470 0L430 0L391 0L352 0L313 0L274 0L235 0L196 0L157 0L117 0L78 0L39 0L0 0Z" fill="#533200"></path></svg>