<svg id="visual" viewBox="0 0 2000 1000" width="2000" height="1000" xmlns="http://www.w3.org/2000/svg" xmlns:xlink="http://www.w3.org/1999/xlink" version="1.1"><rect width="2000" height="1000" fill="#0e2038"></rect><g><g transform="translate(662 828)"><path d="M0 -29.8L25.8 -14.9L25.8 14.9L0 29.8L-25.8 14.9L-25.8 -14.9Z" fill="none" stroke="#102642" stroke-width="5"></path></g><g transform="translate(528 262)"><path d="M0 -22L19.1 -11L19.1 11L0 22L-19.1 11L-19.1 -11Z" stroke="#102642" fill="none" stroke-width="5"></path></g><g transform="translate(1809 566)"><path d="M0 -24L20.8 -12L20.8 12L0 24L-20.8 12L-20.8 -12Z" stroke="#102642" fill="none" stroke-width="5"></path></g><g transform="translate(1450 129)"><path d="M0 -15L13 -7.5L13 7.5L0 15L-13 7.5L-13 -7.5Z" stroke="#102642" fill="none" stroke-width="5"></path></g><g transform="translate(1986 97)"><path d="M0 -15L13 -7.5L13 7.5L0 15L-13 7.5L-13 -7.5Z" stroke="#102642" fill="none" stroke-width="5"></path></g><g transform="translate(1336 114)"><path d="M0 -25L21.7 -12.5L21.7 12.5L0 25L-21.7 12.5L-21.7 -12.5Z" stroke="#102642" fill="none" stroke-width="5"></path></g><g transform="translate(711 12)"><path d="M0 -19L16.5 -9.5L16.5 9.5L0 19L-16.5 9.5L-16.5 -9.5Z" stroke="#102642" fill="none" stroke-width="5"></path></g><g transform="translate(989 520)"><path d="M0 -10L8.7 -5L8.7 5L0 10L-8.7 5L-8.7 -5Z" stroke="#102642" fill="none" stroke-width="5"></path></g><g transform="translate(1763 233)"><path d="M0 -13L11.3 -6.5L11.3 6.5L0 13L-11.3 6.5L-11.3 -6.5Z" stroke="#102642" fill="none" stroke-width="5"></path></g><g transform="translate(1102 288)"><path d="M0 -12L10.4 -6L10.4 6L0 12L-10.4 6L-10.4 -6Z" stroke="#102642" fill="none" stroke-width="5"></path></g><g transform="translate(506 177)"><path d="M0 -9L7.8 -4.5L7.8 4.5L0 9L-7.8 4.5L-7.8 -4.5Z" stroke="#102642" fill="none" stroke-width="5"></path></g><g transform="translate(746 886)"><path d="M0 -7L6.1 -3.5L6.1 3.5L0 7L-6.1 3.5L-6.1 -3.5Z" stroke="#102642" fill="none" stroke-width="5"></path></g><g transform="translate(944 260)"><path d="M0 -10L8.7 -5L8.7 5L0 10L-8.7 5L-8.7 -5Z" stroke="#102642" fill="none" stroke-width="5"></path></g><g transform="translate(170 377)"><path d="M0 -15L13 -7.5L13 7.5L0 15L-13 7.5L-13 -7.5Z" stroke="#102642" fill="none" stroke-width="5"></path></g><g transform="translate(971 583)"><path d="M0 -20L17.3 -10L17.3 10L0 20L-17.3 10L-17.3 -10Z" stroke="#102642" fill="none" stroke-width="5"></path></g><g transform="translate(76 138)"><path d="M0 -25L21.7 -12.5L21.7 12.5L0 25L-21.7 12.5L-21.7 -12.5Z" stroke="#102642" fill="none" stroke-width="5"></path></g><g transform="translate(255 673)"><path d="M0 -11L9.5 -5.5L9.5 5.5L0 11L-9.5 5.5L-9.5 -5.5Z" stroke="#102642" fill="none" stroke-width="5"></path></g><g transform="translate(523 791)"><path d="M0 -28L24.2 -14L24.2 14L0 28L-24.2 14L-24.2 -14Z" stroke="#102642" fill="none" stroke-width="5"></path></g><g transform="translate(1345 761)"><path d="M0 -22L19.1 -11L19.1 11L0 22L-19.1 11L-19.1 -11Z" stroke="#102642" fill="none" stroke-width="5"></path></g><g transform="translate(1474 20)"><path d="M0 -7L6.1 -3.5L6.1 3.5L0 7L-6.1 3.5L-6.1 -3.5Z" stroke="#102642" fill="none" stroke-width="5"></path></g><g transform="translate(1135 505)"><path d="M0 -14L12.1 -7L12.1 7L0 14L-12.1 7L-12.1 -7Z" stroke="#102642" fill="none" stroke-width="5"></path></g><g transform="translate(1244 985)"><path d="M0 -10L8.7 -5L8.7 5L0 10L-8.7 5L-8.7 -5Z" stroke="#102642" fill="none" stroke-width="5"></path></g><g transform="translate(1098 912)"><path d="M0 -13L11.3 -6.5L11.3 6.5L0 13L-11.3 6.5L-11.3 -6.5Z" stroke="#102642" fill="none" stroke-width="5"></path></g><g transform="translate(333 781)"><path d="M0 -23L19.9 -11.5L19.9 11.5L0 23L-19.9 11.5L-19.9 -11.5Z" stroke="#102642" fill="none" stroke-width="5"></path></g><g transform="translate(1645 804)"><path d="M0 -15L13 -7.5L13 7.5L0 15L-13 7.5L-13 -7.5Z" stroke="#102642" fill="none" stroke-width="5"></path></g><g transform="translate(844 688)"><path d="M0 -18L15.6 -9L15.6 9L0 18L-15.6 9L-15.6 -9Z" stroke="#102642" fill="none" stroke-width="5"></path></g><g transform="translate(670 368)"><path d="M0 -28L24.2 -14L24.2 14L0 28L-24.2 14L-24.2 -14Z" stroke="#102642" fill="none" stroke-width="5"></path></g><g transform="translate(1902 840)"><path d="M0 -19L16.5 -9.5L16.5 9.5L0 19L-16.5 9.5L-16.5 -9.5Z" stroke="#102642" fill="none" stroke-width="5"></path></g><g transform="translate(1087 972)"><path d="M0 -21L18.2 -10.5L18.2 10.5L0 21L-18.2 10.5L-18.2 -10.5Z" stroke="#102642" fill="none" stroke-width="5"></path></g><g transform="translate(6 87)"><path d="M0 -26L22.5 -13L22.5 13L0 26L-22.5 13L-22.5 -13Z" stroke="#102642" fill="none" stroke-width="5"></path></g><g transform="translate(1533 616)"><path d="M0 -20L17.3 -10L17.3 10L0 20L-17.3 10L-17.3 -10Z" stroke="#102642" fill="none" stroke-width="5"></path></g><g transform="translate(1971 671)"><path d="M0 -12L10.4 -6L10.4 6L0 12L-10.4 6L-10.4 -6Z" stroke="#102642" fill="none" stroke-width="5"></path></g><g transform="translate(609 889)"><path d="M0 -18L15.6 -9L15.6 9L0 18L-15.6 9L-15.6 -9Z" stroke="#102642" fill="none" stroke-width="5"></path></g><g transform="translate(963 716)"><path d="M0 -7L6.1 -3.5L6.1 3.5L0 7L-6.1 3.5L-6.1 -3.5Z" stroke="#102642" fill="none" stroke-width="5"></path></g><g transform="translate(1510 249)"><path d="M0 -18L15.6 -9L15.6 9L0 18L-15.6 9L-15.6 -9Z" stroke="#102642" fill="none" stroke-width="5"></path></g><g transform="translate(962 990)"><path d="M0 -20L17.3 -10L17.3 10L0 20L-17.3 10L-17.3 -10Z" stroke="#102642" fill="none" stroke-width="5"></path></g><g transform="translate(323 411)"><path d="M0 -11L9.5 -5.5L9.5 5.5L0 11L-9.5 5.5L-9.5 -5.5Z" stroke="#102642" fill="none" stroke-width="5"></path></g><g transform="translate(849 859)"><path d="M0 -15L13 -7.5L13 7.5L0 15L-13 7.5L-13 -7.5Z" stroke="#102642" fill="none" stroke-width="5"></path></g><g transform="translate(782 216)"><path d="M0 -27L23.4 -13.5L23.4 13.5L0 27L-23.4 13.5L-23.4 -13.5Z" stroke="#102642" fill="none" stroke-width="5"></path></g><g transform="translate(1914 23)"><path d="M0 -21L18.2 -10.5L18.2 10.5L0 21L-18.2 10.5L-18.2 -10.5Z" stroke="#102642" fill="none" stroke-width="5"></path></g><g transform="translate(1500 946)"><path d="M0 -10L8.7 -5L8.7 5L0 10L-8.7 5L-8.7 -5Z" stroke="#102642" fill="none" stroke-width="5"></path></g><g transform="translate(869 544)"><path d="M0 -26L22.5 -13L22.5 13L0 26L-22.5 13L-22.5 -13Z" stroke="#102642" fill="none" stroke-width="5"></path></g><g transform="translate(750 754)"><path d="M0 -7L6.1 -3.5L6.1 3.5L0 7L-6.1 3.5L-6.1 -3.5Z" stroke="#102642" fill="none" stroke-width="5"></path></g><g transform="translate(688 180)"><path d="M0 -17L14.7 -8.5L14.7 8.5L0 17L-14.7 8.5L-14.7 -8.5Z" stroke="#102642" fill="none" stroke-width="5"></path></g><g transform="translate(1767 425)"><path d="M0 -21L18.2 -10.5L18.2 10.5L0 21L-18.2 10.5L-18.2 -10.5Z" stroke="#102642" fill="none" stroke-width="5"></path></g><g transform="translate(1909 935)"><path d="M0 -28L24.2 -14L24.2 14L0 28L-24.2 14L-24.2 -14Z" stroke="#102642" fill="none" stroke-width="5"></path></g><g transform="translate(1695 367)"><path d="M0 -27L23.4 -13.5L23.4 13.5L0 27L-23.4 13.5L-23.4 -13.5Z" stroke="#102642" fill="none" stroke-width="5"></path></g><g transform="translate(1356 270)"><path d="M0 -12L10.4 -6L10.4 6L0 12L-10.4 6L-10.4 -6Z" stroke="#102642" fill="none" stroke-width="5"></path></g><g transform="translate(1430 299)"><path d="M0 -28L24.2 -14L24.2 14L0 28L-24.2 14L-24.2 -14Z" stroke="#102642" fill="none" stroke-width="5"></path></g><g transform="translate(803 516)"><path d="M0 -18L15.6 -9L15.6 9L0 18L-15.6 9L-15.6 -9Z" stroke="#102642" fill="none" stroke-width="5"></path></g><g transform="translate(325 650)"><path d="M0 -21L18.2 -10.5L18.2 10.5L0 21L-18.2 10.5L-18.2 -10.5Z" stroke="#102642" fill="none" stroke-width="5"></path></g><g transform="translate(849 960)"><path d="M0 -15L13 -7.5L13 7.5L0 15L-13 7.5L-13 -7.5Z" stroke="#102642" fill="none" stroke-width="5"></path></g><g transform="translate(1592 713)"><path d="M0 -28L24.2 -14L24.2 14L0 28L-24.2 14L-24.2 -14Z" stroke="#102642" fill="none" stroke-width="5"></path></g><g transform="translate(144 436)"><path d="M0 -13L11.3 -6.5L11.3 6.5L0 13L-11.3 6.5L-11.3 -6.5Z" stroke="#102642" fill="none" stroke-width="5"></path></g><g transform="translate(1764 716)"><path d="M0 -7L6.1 -3.5L6.1 3.5L0 7L-6.1 3.5L-6.1 -3.5Z" stroke="#102642" fill="none" stroke-width="5"></path></g><g transform="translate(1661 722)"><path d="M0 -23L19.9 -11.5L19.9 11.5L0 23L-19.9 11.5L-19.9 -11.5Z" stroke="#102642" fill="none" stroke-width="5"></path></g><g transform="translate(1875 170)"><path d="M0 -14L12.1 -7L12.1 7L0 14L-12.1 7L-12.1 -7Z" stroke="#102642" fill="none" stroke-width="5"></path></g><g transform="translate(1311 649)"><path d="M0 -15L13 -7.5L13 7.5L0 15L-13 7.5L-13 -7.5Z" stroke="#102642" fill="none" stroke-width="5"></path></g><g transform="translate(63 7)"><path d="M0 -15L13 -7.5L13 7.5L0 15L-13 7.5L-13 -7.5Z" stroke="#102642" fill="none" stroke-width="5"></path></g><g transform="translate(779 412)"><path d="M0 -25L21.7 -12.5L21.7 12.5L0 25L-21.7 12.5L-21.7 -12.5Z" stroke="#102642" fill="none" stroke-width="5"></path></g><g transform="translate(1413 693)"><path d="M0 -17L14.7 -8.5L14.7 8.5L0 17L-14.7 8.5L-14.7 -8.5Z" stroke="#102642" fill="none" stroke-width="5"></path></g><g transform="translate(745 605)"><path d="M0 -24L20.8 -12L20.8 12L0 24L-20.8 12L-20.8 -12Z" stroke="#102642" fill="none" stroke-width="5"></path></g><g transform="translate(617 265)"><path d="M0 -21L18.2 -10.5L18.2 10.5L0 21L-18.2 10.5L-18.2 -10.5Z" stroke="#102642" fill="none" stroke-width="5"></path></g><g transform="translate(110 852)"><path d="M0 -9L7.8 -4.5L7.8 4.5L0 9L-7.8 4.5L-7.8 -4.5Z" stroke="#102642" fill="none" stroke-width="5"></path></g><g transform="translate(628 637)"><path d="M0 -14L12.1 -7L12.1 7L0 14L-12.1 7L-12.1 -7Z" stroke="#102642" fill="none" stroke-width="5"></path></g><g transform="translate(190 206)"><path d="M0 -19L16.5 -9.5L16.5 9.5L0 19L-16.5 9.5L-16.5 -9.5Z" stroke="#102642" fill="none" stroke-width="5"></path></g><g transform="translate(1934 147)"><path d="M0 -26L22.5 -13L22.5 13L0 26L-22.5 13L-22.5 -13Z" stroke="#102642" fill="none" stroke-width="5"></path></g><g transform="translate(1535 311)"><path d="M0 -16L13.9 -8L13.9 8L0 16L-13.9 8L-13.9 -8Z" stroke="#102642" fill="none" stroke-width="5"></path></g><g transform="translate(416 590)"><path d="M0 -27L23.4 -13.5L23.4 13.5L0 27L-23.4 13.5L-23.4 -13.5Z" stroke="#102642" fill="none" stroke-width="5"></path></g><g transform="translate(1479 785)"><path d="M0 -7L6.1 -3.5L6.1 3.5L0 7L-6.1 3.5L-6.1 -3.5Z" stroke="#102642" fill="none" stroke-width="5"></path></g><g transform="translate(415 253)"><path d="M0 -18L15.6 -9L15.6 9L0 18L-15.6 9L-15.6 -9Z" stroke="#102642" fill="none" stroke-width="5"></path></g><g transform="translate(269 544)"><path d="M0 -27L23.4 -13.5L23.4 13.5L0 27L-23.4 13.5L-23.4 -13.5Z" stroke="#102642" fill="none" stroke-width="5"></path></g><g transform="translate(1056 849)"><path d="M0 -26L22.5 -13L22.5 13L0 26L-22.5 13L-22.5 -13Z" stroke="#102642" fill="none" stroke-width="5"></path></g><g transform="translate(107 729)"><path d="M0 -11L9.5 -5.5L9.5 5.5L0 11L-9.5 5.5L-9.5 -5.5Z" stroke="#102642" fill="none" stroke-width="5"></path></g><g transform="translate(1086 793)"><path d="M0 -9L7.8 -4.5L7.8 4.5L0 9L-7.8 4.5L-7.8 -4.5Z" stroke="#102642" fill="none" stroke-width="5"></path></g><g transform="translate(145 113)"><path d="M0 -13L11.3 -6.5L11.3 6.5L0 13L-11.3 6.5L-11.3 -6.5Z" stroke="#102642" fill="none" stroke-width="5"></path></g><g transform="translate(828 111)"><path d="M0 -27L23.4 -13.5L23.4 13.5L0 27L-23.4 13.5L-23.4 -13.5Z" stroke="#102642" fill="none" stroke-width="5"></path></g><g transform="translate(144 544)"><path d="M0 -20L17.3 -10L17.3 10L0 20L-17.3 10L-17.3 -10Z" stroke="#102642" fill="none" stroke-width="5"></path></g><g transform="translate(504 713)"><path d="M0 -16L13.9 -8L13.9 8L0 16L-13.9 8L-13.9 -8Z" stroke="#102642" fill="none" stroke-width="5"></path></g><g transform="translate(964 828)"><path d="M0 -19L16.5 -9.5L16.5 9.5L0 19L-16.5 9.5L-16.5 -9.5Z" stroke="#102642" fill="none" stroke-width="5"></path></g><g transform="translate(1228 522)"><path d="M0 -12L10.4 -6L10.4 6L0 12L-10.4 6L-10.4 -6Z" stroke="#102642" fill="none" stroke-width="5"></path></g><g transform="translate(1138 733)"><path d="M0 -28L24.2 -14L24.2 14L0 28L-24.2 14L-24.2 -14Z" stroke="#102642" fill="none" stroke-width="5"></path></g><g transform="translate(272 224)"><path d="M0 -20L17.3 -10L17.3 10L0 20L-17.3 10L-17.3 -10Z" stroke="#102642" fill="none" stroke-width="5"></path></g><g transform="translate(365 22)"><path d="M0 -12L10.4 -6L10.4 6L0 12L-10.4 6L-10.4 -6Z" stroke="#102642" fill="none" stroke-width="5"></path></g><g transform="translate(461 352)"><path d="M0 -11L9.5 -5.5L9.5 5.5L0 11L-9.5 5.5L-9.5 -5.5Z" stroke="#102642" fill="none" stroke-width="5"></path></g><g transform="translate(1808 361)"><path d="M0 -19L16.5 -9.5L16.5 9.5L0 19L-16.5 9.5L-16.5 -9.5Z" stroke="#102642" fill="none" stroke-width="5"></path></g><g transform="translate(1624 275)"><path d="M0 -17L14.7 -8.5L14.7 8.5L0 17L-14.7 8.5L-14.7 -8.5Z" stroke="#102642" fill="none" stroke-width="5"></path></g><g transform="translate(327 969)"><path d="M0 -10L8.7 -5L8.7 5L0 10L-8.7 5L-8.7 -5Z" stroke="#102642" fill="none" stroke-width="5"></path></g><g transform="translate(1073 56)"><path d="M0 -22L19.1 -11L19.1 11L0 22L-19.1 11L-19.1 -11Z" stroke="#102642" fill="none" stroke-width="5"></path></g><g transform="translate(1348 590)"><path d="M0 -10L8.7 -5L8.7 5L0 10L-8.7 5L-8.7 -5Z" stroke="#102642" fill="none" stroke-width="5"></path></g><g transform="translate(1668 503)"><path d="M0 -26L22.5 -13L22.5 13L0 26L-22.5 13L-22.5 -13Z" stroke="#102642" fill="none" stroke-width="5"></path></g><g transform="translate(551 913)"><path d="M0 -12L10.4 -6L10.4 6L0 12L-10.4 6L-10.4 -6Z" stroke="#102642" fill="none" stroke-width="5"></path></g><g transform="translate(412 854)"><path d="M0 -9L7.8 -4.5L7.8 4.5L0 9L-7.8 4.5L-7.8 -4.5Z" stroke="#102642" fill="none" stroke-width="5"></path></g><g transform="translate(1600 918)"><path d="M0 -16L13.9 -8L13.9 8L0 16L-13.9 8L-13.9 -8Z" stroke="#102642" fill="none" stroke-width="5"></path></g><g transform="translate(44 683)"><path d="M0 -25L21.7 -12.5L21.7 12.5L0 25L-21.7 12.5L-21.7 -12.5Z" stroke="#102642" fill="none" stroke-width="5"></path></g><g transform="translate(225 343)"><path d="M0 -23L19.9 -11.5L19.9 11.5L0 23L-19.9 11.5L-19.9 -11.5Z" stroke="#102642" fill="none" stroke-width="5"></path></g><g transform="translate(1142 106)"><path d="M0 -25L21.7 -12.5L21.7 12.5L0 25L-21.7 12.5L-21.7 -12.5Z" stroke="#102642" fill="none" stroke-width="5"></path></g><g transform="translate(1889 350)"><path d="M0 -10L8.7 -5L8.7 5L0 10L-8.7 5L-8.7 -5Z" stroke="#102642" fill="none" stroke-width="5"></path></g><g transform="translate(671 588)"><path d="M0 -12L10.4 -6L10.4 6L0 12L-10.4 6L-10.4 -6Z" stroke="#102642" fill="none" stroke-width="5"></path></g><g transform="translate(971 924)"><path d="M0 -24L20.8 -12L20.8 12L0 24L-20.8 12L-20.8 -12Z" stroke="#102642" fill="none" stroke-width="5"></path></g><g transform="translate(885 87)"><path d="M0 -9L7.8 -4.5L7.8 4.5L0 9L-7.8 4.5L-7.8 -4.5Z" stroke="#102642" fill="none" stroke-width="5"></path></g><g transform="translate(1359 950)"><path d="M0 -18L15.6 -9L15.6 9L0 18L-15.6 9L-15.6 -9Z" stroke="#102642" fill="none" stroke-width="5"></path></g><g transform="translate(403 926)"><path d="M0 -7L6.1 -3.5L6.1 3.5L0 7L-6.1 3.5L-6.1 -3.5Z" stroke="#102642" fill="none" stroke-width="5"></path></g><g transform="translate(946 367)"><path d="M0 -18L15.6 -9L15.6 9L0 18L-15.6 9L-15.6 -9Z" stroke="#102642" fill="none" stroke-width="5"></path></g><g transform="translate(603 729)"><path d="M0 -10L8.7 -5L8.7 5L0 10L-8.7 5L-8.7 -5Z" stroke="#102642" fill="none" stroke-width="5"></path></g><g transform="translate(1317 362)"><path d="M0 -27L23.4 -13.5L23.4 13.5L0 27L-23.4 13.5L-23.4 -13.5Z" stroke="#102642" fill="none" stroke-width="5"></path></g><g transform="translate(1460 488)"><path d="M0 -13L11.3 -6.5L11.3 6.5L0 13L-11.3 6.5L-11.3 -6.5Z" stroke="#102642" fill="none" stroke-width="5"></path></g><g transform="translate(905 157)"><path d="M0 -17L14.7 -8.5L14.7 8.5L0 17L-14.7 8.5L-14.7 -8.5Z" stroke="#102642" fill="none" stroke-width="5"></path></g><g transform="translate(1117 211)"><path d="M0 -17L14.7 -8.5L14.7 8.5L0 17L-14.7 8.5L-14.7 -8.5Z" stroke="#102642" fill="none" stroke-width="5"></path></g><g transform="translate(524 412)"><path d="M0 -15L13 -7.5L13 7.5L0 15L-13 7.5L-13 -7.5Z" stroke="#102642" fill="none" stroke-width="5"></path></g><g transform="translate(643 90)"><path d="M0 -13L11.3 -6.5L11.3 6.5L0 13L-11.3 6.5L-11.3 -6.5Z" stroke="#102642" fill="none" stroke-width="5"></path></g><g transform="translate(1970 246)"><path d="M0 -22L19.1 -11L19.1 11L0 22L-19.1 11L-19.1 -11Z" stroke="#102642" fill="none" stroke-width="5"></path></g><g transform="translate(69 617)"><path d="M0 -15L13 -7.5L13 7.5L0 15L-13 7.5L-13 -7.5Z" stroke="#102642" fill="none" stroke-width="5"></path></g><g transform="translate(1590 401)"><path d="M0 -21L18.2 -10.5L18.2 10.5L0 21L-18.2 10.5L-18.2 -10.5Z" stroke="#102642" fill="none" stroke-width="5"></path></g><g transform="translate(208 905)"><path d="M0 -28L24.2 -14L24.2 14L0 28L-24.2 14L-24.2 -14Z" stroke="#102642" fill="none" stroke-width="5"></path></g><g transform="translate(1252 83)"><path d="M0 -24L20.8 -12L20.8 12L0 24L-20.8 12L-20.8 -12Z" stroke="#102642" fill="none" stroke-width="5"></path></g><g transform="translate(180 797)"><path d="M0 -10L8.7 -5L8.7 5L0 10L-8.7 5L-8.7 -5Z" stroke="#102642" fill="none" stroke-width="5"></path></g><g transform="translate(1030 989)"><path d="M0 -9L7.8 -4.5L7.8 4.5L0 9L-7.8 4.5L-7.8 -4.5Z" stroke="#102642" fill="none" stroke-width="5"></path></g><g transform="translate(1792 771)"><path d="M0 -27L23.4 -13.5L23.4 13.5L0 27L-23.4 13.5L-23.4 -13.5Z" stroke="#102642" fill="none" stroke-width="5"></path></g><g transform="translate(874 21)"><path d="M0 -27L23.4 -13.5L23.4 13.5L0 27L-23.4 13.5L-23.4 -13.5Z" stroke="#102642" fill="none" stroke-width="5"></path></g><g transform="translate(85 228)"><path d="M0 -16L13.9 -8L13.9 8L0 16L-13.9 8L-13.9 -8Z" stroke="#102642" fill="none" stroke-width="5"></path></g><g transform="translate(780 671)"><path d="M0 -26L22.5 -13L22.5 13L0 26L-22.5 13L-22.5 -13Z" stroke="#102642" fill="none" stroke-width="5"></path></g><g transform="translate(1453 417)"><path d="M0 -22L19.1 -11L19.1 11L0 22L-19.1 11L-19.1 -11Z" stroke="#102642" fill="none" stroke-width="5"></path></g><g transform="translate(1190 244)"><path d="M0 -20L17.3 -10L17.3 10L0 20L-17.3 10L-17.3 -10Z" stroke="#102642" fill="none" stroke-width="5"></path></g><g transform="translate(578 600)"><path d="M0 -9L7.8 -4.5L7.8 4.5L0 9L-7.8 4.5L-7.8 -4.5Z" stroke="#102642" fill="none" stroke-width="5"></path></g><g transform="translate(586 115)"><path d="M0 -7L6.1 -3.5L6.1 3.5L0 7L-6.1 3.5L-6.1 -3.5Z" stroke="#102642" fill="none" stroke-width="5"></path></g><g transform="translate(1406 895)"><path d="M0 -28L24.2 -14L24.2 14L0 28L-24.2 14L-24.2 -14Z" stroke="#102642" fill="none" stroke-width="5"></path></g><g transform="translate(970 430)"><path d="M0 -7L6.1 -3.5L6.1 3.5L0 7L-6.1 3.5L-6.1 -3.5Z" stroke="#102642" fill="none" stroke-width="5"></path></g><g transform="translate(1037 165)"><path d="M0 -24L20.8 -12L20.8 12L0 24L-20.8 12L-20.8 -12Z" stroke="#102642" fill="none" stroke-width="5"></path></g><g transform="translate(398 143)"><path d="M0 -14L12.1 -7L12.1 7L0 14L-12.1 7L-12.1 -7Z" stroke="#102642" fill="none" stroke-width="5"></path></g><g transform="translate(276 830)"><path d="M0 -21L18.2 -10.5L18.2 10.5L0 21L-18.2 10.5L-18.2 -10.5Z" stroke="#102642" fill="none" stroke-width="5"></path></g><g transform="translate(1915 411)"><path d="M0 -27L23.4 -13.5L23.4 13.5L0 27L-23.4 13.5L-23.4 -13.5Z" stroke="#102642" fill="none" stroke-width="5"></path></g><g transform="translate(1888 88)"><path d="M0 -11L9.5 -5.5L9.5 5.5L0 11L-9.5 5.5L-9.5 -5.5Z" stroke="#102642" fill="none" stroke-width="5"></path></g><g transform="translate(1929 545)"><path d="M0 -9L7.8 -4.5L7.8 4.5L0 9L-7.8 4.5L-7.8 -4.5Z" stroke="#102642" fill="none" stroke-width="5"></path></g><g transform="translate(1210 317)"><path d="M0 -28L24.2 -14L24.2 14L0 28L-24.2 14L-24.2 -14Z" stroke="#102642" fill="none" stroke-width="5"></path></g><g transform="translate(1705 769)"><path d="M0 -28L24.2 -14L24.2 14L0 28L-24.2 14L-24.2 -14Z" stroke="#102642" fill="none" stroke-width="5"></path></g><g transform="translate(1756 845)"><path d="M0 -19L16.5 -9.5L16.5 9.5L0 19L-16.5 9.5L-16.5 -9.5Z" stroke="#102642" fill="none" stroke-width="5"></path></g><g transform="translate(400 83)"><path d="M0 -18L15.6 -9L15.6 9L0 18L-15.6 9L-15.6 -9Z" stroke="#102642" fill="none" stroke-width="5"></path></g><g transform="translate(355 492)"><path d="M0 -7L6.1 -3.5L6.1 3.5L0 7L-6.1 3.5L-6.1 -3.5Z" stroke="#102642" fill="none" stroke-width="5"></path></g><g transform="translate(1692 149)"><path d="M0 -23L19.9 -11.5L19.9 11.5L0 23L-19.9 11.5L-19.9 -11.5Z" stroke="#102642" fill="none" stroke-width="5"></path></g><g transform="translate(1009 11)"><path d="M0 -28L24.2 -14L24.2 14L0 28L-24.2 14L-24.2 -14Z" stroke="#102642" fill="none" stroke-width="5"></path></g><g transform="translate(428 677)"><path d="M0 -9L7.8 -4.5L7.8 4.5L0 9L-7.8 4.5L-7.8 -4.5Z" stroke="#102642" fill="none" stroke-width="5"></path></g><g transform="translate(1420 189)"><path d="M0 -15L13 -7.5L13 7.5L0 15L-13 7.5L-13 -7.5Z" stroke="#102642" fill="none" stroke-width="5"></path></g><g transform="translate(301 899)"><path d="M0 -23L19.9 -11.5L19.9 11.5L0 23L-19.9 11.5L-19.9 -11.5Z" stroke="#102642" fill="none" stroke-width="5"></path></g><g transform="translate(543 336)"><path d="M0 -9L7.8 -4.5L7.8 4.5L0 9L-7.8 4.5L-7.8 -4.5Z" stroke="#102642" fill="none" stroke-width="5"></path></g><g transform="translate(1592 99)"><path d="M0 -21L18.2 -10.5L18.2 10.5L0 21L-18.2 10.5L-18.2 -10.5Z" stroke="#102642" fill="none" stroke-width="5"></path></g><g transform="translate(567 975)"><path d="M0 -11L9.5 -5.5L9.5 5.5L0 11L-9.5 5.5L-9.5 -5.5Z" stroke="#102642" fill="none" stroke-width="5"></path></g><g transform="translate(520 543)"><path d="M0 -13L11.3 -6.5L11.3 6.5L0 13L-11.3 6.5L-11.3 -6.5Z" stroke="#102642" fill="none" stroke-width="5"></path></g><g transform="translate(1055 525)"><path d="M0 -17L14.7 -8.5L14.7 8.5L0 17L-14.7 8.5L-14.7 -8.5Z" stroke="#102642" fill="none" stroke-width="5"></path></g><g transform="translate(1847 944)"><path d="M0 -25L21.7 -12.5L21.7 12.5L0 25L-21.7 12.5L-21.7 -12.5Z" stroke="#102642" fill="none" stroke-width="5"></path></g><g transform="translate(702 452)"><path d="M0 -15L13 -7.5L13 7.5L0 15L-13 7.5L-13 -7.5Z" stroke="#102642" fill="none" stroke-width="5"></path></g><g transform="translate(329 106)"><path d="M0 -13L11.3 -6.5L11.3 6.5L0 13L-11.3 6.5L-11.3 -6.5Z" stroke="#102642" fill="none" stroke-width="5"></path></g><g transform="translate(1663 912)"><path d="M0 -19L16.5 -9.5L16.5 9.5L0 19L-16.5 9.5L-16.5 -9.5Z" stroke="#102642" fill="none" stroke-width="5"></path></g><g transform="translate(1253 152)"><path d="M0 -15L13 -7.5L13 7.5L0 15L-13 7.5L-13 -7.5Z" stroke="#102642" fill="none" stroke-width="5"></path></g><g transform="translate(1257 421)"><path d="M0 -17L14.7 -8.5L14.7 8.5L0 17L-14.7 8.5L-14.7 -8.5Z" stroke="#102642" fill="none" stroke-width="5"></path></g><g transform="translate(634 969)"><path d="M0 -11L9.5 -5.5L9.5 5.5L0 11L-9.5 5.5L-9.5 -5.5Z" stroke="#102642" fill="none" stroke-width="5"></path></g><g transform="translate(1822 649)"><path d="M0 -23L19.9 -11.5L19.9 11.5L0 23L-19.9 11.5L-19.9 -11.5Z" stroke="#102642" fill="none" stroke-width="5"></path></g><g transform="translate(67 941)"><path d="M0 -21L18.2 -10.5L18.2 10.5L0 21L-18.2 10.5L-18.2 -10.5Z" stroke="#102642" fill="none" stroke-width="5"></path></g><g transform="translate(118 46)"><path d="M0 -19L16.5 -9.5L16.5 9.5L0 19L-16.5 9.5L-16.5 -9.5Z" stroke="#102642" fill="none" stroke-width="5"></path></g><g transform="translate(1834 245)"><path d="M0 -22L19.1 -11L19.1 11L0 22L-19.1 11L-19.1 -11Z" stroke="#102642" fill="none" stroke-width="5"></path></g><g transform="translate(91 319)"><path d="M0 -28L24.2 -14L24.2 14L0 28L-24.2 14L-24.2 -14Z" stroke="#102642" fill="none" stroke-width="5"></path></g><g transform="translate(321 274)"><path d="M0 -18L15.6 -9L15.6 9L0 18L-15.6 9L-15.6 -9Z" stroke="#102642" fill="none" stroke-width="5"></path></g><g transform="translate(5 269)"><path d="M0 -9L7.8 -4.5L7.8 4.5L0 9L-7.8 4.5L-7.8 -4.5Z" stroke="#102642" fill="none" stroke-width="5"></path></g><g transform="translate(807 595)"><path d="M0 -23L19.9 -11.5L19.9 11.5L0 23L-19.9 11.5L-19.9 -11.5Z" stroke="#102642" fill="none" stroke-width="5"></path></g><g transform="translate(916 679)"><path d="M0 -16L13.9 -8L13.9 8L0 16L-13.9 8L-13.9 -8Z" stroke="#102642" fill="none" stroke-width="5"></path></g><g transform="translate(335 562)"><path d="M0 -19L16.5 -9.5L16.5 9.5L0 19L-16.5 9.5L-16.5 -9.5Z" stroke="#102642" fill="none" stroke-width="5"></path></g><g transform="translate(740 127)"><path d="M0 -19L16.5 -9.5L16.5 9.5L0 19L-16.5 9.5L-16.5 -9.5Z" stroke="#102642" fill="none" stroke-width="5"></path></g><g transform="translate(1326 873)"><path d="M0 -23L19.9 -11.5L19.9 11.5L0 23L-19.9 11.5L-19.9 -11.5Z" stroke="#102642" fill="none" stroke-width="5"></path></g><g transform="translate(610 475)"><path d="M0 -9L7.8 -4.5L7.8 4.5L0 9L-7.8 4.5L-7.8 -4.5Z" stroke="#102642" fill="none" stroke-width="5"></path></g><g transform="translate(428 470)"><path d="M0 -21L18.2 -10.5L18.2 10.5L0 21L-18.2 10.5L-18.2 -10.5Z" stroke="#102642" fill="none" stroke-width="5"></path></g><g transform="translate(38 391)"><path d="M0 -14L12.1 -7L12.1 7L0 14L-12.1 7L-12.1 -7Z" stroke="#102642" fill="none" stroke-width="5"></path></g><g transform="translate(1590 26)"><path d="M0 -7L6.1 -3.5L6.1 3.5L0 7L-6.1 3.5L-6.1 -3.5Z" stroke="#102642" fill="none" stroke-width="5"></path></g><g transform="translate(511 103)"><path d="M0 -27L23.4 -13.5L23.4 13.5L0 27L-23.4 13.5L-23.4 -13.5Z" stroke="#102642" fill="none" stroke-width="5"></path></g><g transform="translate(1017 234)"><path d="M0 -12L10.4 -6L10.4 6L0 12L-10.4 6L-10.4 -6Z" stroke="#102642" fill="none" stroke-width="5"></path></g><g transform="translate(450 739)"><path d="M0 -20L17.3 -10L17.3 10L0 20L-17.3 10L-17.3 -10Z" stroke="#102642" fill="none" stroke-width="5"></path></g><g transform="translate(1064 372)"><path d="M0 -9L7.8 -4.5L7.8 4.5L0 9L-7.8 4.5L-7.8 -4.5Z" stroke="#102642" fill="none" stroke-width="5"></path></g><g transform="translate(274 466)"><path d="M0 -22L19.1 -11L19.1 11L0 22L-19.1 11L-19.1 -11Z" stroke="#102642" fill="none" stroke-width="5"></path></g><g transform="translate(1775 104)"><path d="M0 -13L11.3 -6.5L11.3 6.5L0 13L-11.3 6.5L-11.3 -6.5Z" stroke="#102642" fill="none" stroke-width="5"></path></g><g transform="translate(1807 45)"><path d="M0 -12L10.4 -6L10.4 6L0 12L-10.4 6L-10.4 -6Z" stroke="#102642" fill="none" stroke-width="5"></path></g><g transform="translate(1772 996)"><path d="M0 -7L6.1 -3.5L6.1 3.5L0 7L-6.1 3.5L-6.1 -3.5Z" stroke="#102642" fill="none" stroke-width="5"></path></g><g transform="translate(1065 653)"><path d="M0 -25L21.7 -12.5L21.7 12.5L0 25L-21.7 12.5L-21.7 -12.5Z" stroke="#102642" fill="none" stroke-width="5"></path></g><g transform="translate(856 476)"><path d="M0 -25L21.7 -12.5L21.7 12.5L0 25L-21.7 12.5L-21.7 -12.5Z" stroke="#102642" fill="none" stroke-width="5"></path></g><g transform="translate(442 184)"><path d="M0 -15L13 -7.5L13 7.5L0 15L-13 7.5L-13 -7.5Z" stroke="#102642" fill="none" stroke-width="5"></path></g><g transform="translate(1747 8)"><path d="M0 -22L19.1 -11L19.1 11L0 22L-19.1 11L-19.1 -11Z" stroke="#102642" fill="none" stroke-width="5"></path></g><g transform="translate(1366 11)"><path d="M0 -16L13.9 -8L13.9 8L0 16L-13.9 8L-13.9 -8Z" stroke="#102642" fill="none" stroke-width="5"></path></g><g transform="translate(1607 990)"><path d="M0 -22L19.1 -11L19.1 11L0 22L-19.1 11L-19.1 -11Z" stroke="#102642" fill="none" stroke-width="5"></path></g><g transform="translate(5 790)"><path d="M0 -23L19.9 -11.5L19.9 11.5L0 23L-19.9 11.5L-19.9 -11.5Z" stroke="#102642" fill="none" stroke-width="5"></path></g><g transform="translate(756 278)"><path d="M0 -18L15.6 -9L15.6 9L0 18L-15.6 9L-15.6 -9Z" stroke="#102642" fill="none" stroke-width="5"></path></g><g transform="translate(384 995)"><path d="M0 -14L12.1 -7L12.1 7L0 14L-12.1 7L-12.1 -7Z" stroke="#102642" fill="none" stroke-width="5"></path></g><g transform="translate(346 186)"><path d="M0 -26L22.5 -13L22.5 13L0 26L-22.5 13L-22.5 -13Z" stroke="#102642" fill="none" stroke-width="5"></path></g><g transform="translate(213 125)"><path d="M0 -11L9.5 -5.5L9.5 5.5L0 11L-9.5 5.5L-9.5 -5.5Z" stroke="#102642" fill="none" stroke-width="5"></path></g><g transform="translate(1584 574)"><path d="M0 -13L11.3 -6.5L11.3 6.5L0 13L-11.3 6.5L-11.3 -6.5Z" stroke="#102642" fill="none" stroke-width="5"></path></g><g transform="translate(988 80)"><path d="M0 -11L9.5 -5.5L9.5 5.5L0 11L-9.5 5.5L-9.5 -5.5Z" stroke="#102642" fill="none" stroke-width="5"></path></g><g transform="translate(41 187)"><path d="M0 -9L7.8 -4.5L7.8 4.5L0 9L-7.8 4.5L-7.8 -4.5Z" stroke="#102642" fill="none" stroke-width="5"></path></g><g transform="translate(802 26)"><path d="M0 -28L24.2 -14L24.2 14L0 28L-24.2 14L-24.2 -14Z" stroke="#102642" fill="none" stroke-width="5"></path></g><g transform="translate(1297 956)"><path d="M0 -10L8.7 -5L8.7 5L0 10L-8.7 5L-8.7 -5Z" stroke="#102642" fill="none" stroke-width="5"></path></g><g transform="translate(1271 694)"><path d="M0 -16L13.9 -8L13.9 8L0 16L-13.9 8L-13.9 -8Z" stroke="#102642" fill="none" stroke-width="5"></path></g><g transform="translate(1196 376)"><path d="M0 -10L8.7 -5L8.7 5L0 10L-8.7 5L-8.7 -5Z" stroke="#102642" fill="none" stroke-width="5"></path></g><g transform="translate(844 202)"><path d="M0 -20L17.3 -10L17.3 10L0 20L-17.3 10L-17.3 -10Z" stroke="#102642" fill="none" stroke-width="5"></path></g><g transform="translate(1293 240)"><path d="M0 -9L7.8 -4.5L7.8 4.5L0 9L-7.8 4.5L-7.8 -4.5Z" stroke="#102642" fill="none" stroke-width="5"></path></g><g transform="translate(875 319)"><path d="M0 -7L6.1 -3.5L6.1 3.5L0 7L-6.1 3.5L-6.1 -3.5Z" stroke="#102642" fill="none" stroke-width="5"></path></g><g transform="translate(1984 809)"><path d="M0 -10L8.7 -5L8.7 5L0 10L-8.7 5L-8.7 -5Z" stroke="#102642" fill="none" stroke-width="5"></path></g><g transform="translate(1065 460)"><path d="M0 -22L19.1 -11L19.1 11L0 22L-19.1 11L-19.1 -11Z" stroke="#102642" fill="none" stroke-width="5"></path></g><g transform="translate(586 183)"><path d="M0 -23L19.9 -11.5L19.9 11.5L0 23L-19.9 11.5L-19.9 -11.5Z" stroke="#102642" fill="none" stroke-width="5"></path></g><g transform="translate(1441 989)"><path d="M0 -20L17.3 -10L17.3 10L0 20L-17.3 10L-17.3 -10Z" stroke="#102642" fill="none" stroke-width="5"></path></g><g transform="translate(1968 382)"><path d="M0 -8L6.9 -4L6.9 4L0 8L-6.9 4L-6.9 -4Z" stroke="#102642" fill="none" stroke-width="5"></path></g><g transform="translate(232 739)"><path d="M0 -10L8.7 -5L8.7 5L0 10L-8.7 5L-8.7 -5Z" stroke="#102642" fill="none" stroke-width="5"></path></g><g transform="translate(904 802)"><path d="M0 -16L13.9 -8L13.9 8L0 16L-13.9 8L-13.9 -8Z" stroke="#102642" fill="none" stroke-width="5"></path></g><g transform="translate(260 34)"><path d="M0 -13L11.3 -6.5L11.3 6.5L0 13L-11.3 6.5L-11.3 -6.5Z" stroke="#102642" fill="none" stroke-width="5"></path></g><g transform="translate(1305 18)"><path d="M0 -28L24.2 -14L24.2 14L0 28L-24.2 14L-24.2 -14Z" stroke="#102642" fill="none" stroke-width="5"></path></g><g transform="translate(1845 428)"><path d="M0 -11L9.5 -5.5L9.5 5.5L0 11L-9.5 5.5L-9.5 -5.5Z" stroke="#102642" fill="none" stroke-width="5"></path></g><g transform="translate(871 604)"><path d="M0 -28L24.2 -14L24.2 14L0 28L-24.2 14L-24.2 -14Z" stroke="#102642" fill="none" stroke-width="5"></path></g><g transform="translate(1221 836)"><path d="M0 -20L17.3 -10L17.3 10L0 20L-17.3 10L-17.3 -10Z" stroke="#102642" fill="none" stroke-width="5"></path></g><g transform="translate(978 651)"><path d="M0 -7L6.1 -3.5L6.1 3.5L0 7L-6.1 3.5L-6.1 -3.5Z" stroke="#102642" fill="none" stroke-width="5"></path></g><g transform="translate(1157 647)"><path d="M0 -9L7.8 -4.5L7.8 4.5L0 9L-7.8 4.5L-7.8 -4.5Z" stroke="#102642" fill="none" stroke-width="5"></path></g><g transform="translate(496 612)"><path d="M0 -18L15.6 -9L15.6 9L0 18L-15.6 9L-15.6 -9Z" stroke="#102642" fill="none" stroke-width="5"></path></g><g transform="translate(469 292)"><path d="M0 -14L12.1 -7L12.1 7L0 14L-12.1 7L-12.1 -7Z" stroke="#102642" fill="none" stroke-width="5"></path></g><g transform="translate(76 495)"><path d="M0 -25L21.7 -12.5L21.7 12.5L0 25L-21.7 12.5L-21.7 -12.5Z" stroke="#102642" fill="none" stroke-width="5"></path></g><g transform="translate(1298 522)"><path d="M0 -28L24.2 -14L24.2 14L0 28L-24.2 14L-24.2 -14Z" stroke="#102642" fill="none" stroke-width="5"></path></g><g transform="translate(1558 455)"><path d="M0 -24L20.8 -12L20.8 12L0 24L-20.8 12L-20.8 -12Z" stroke="#102642" fill="none" stroke-width="5"></path></g><g transform="translate(130 927)"><path d="M0 -25L21.7 -12.5L21.7 12.5L0 25L-21.7 12.5L-21.7 -12.5Z" stroke="#102642" fill="none" stroke-width="5"></path></g><g transform="translate(383 746)"><path d="M0 -10L8.7 -5L8.7 5L0 10L-8.7 5L-8.7 -5Z" stroke="#102642" fill="none" stroke-width="5"></path></g><g transform="translate(560 853)"><path d="M0 -15L13 -7.5L13 7.5L0 15L-13 7.5L-13 -7.5Z" stroke="#102642" fill="none" stroke-width="5"></path></g><g transform="translate(1394 403)"><path d="M0 -16L13.9 -8L13.9 8L0 16L-13.9 8L-13.9 -8Z" stroke="#102642" fill="none" stroke-width="5"></path></g><g transform="translate(1580 168)"><path d="M0 -17L14.7 -8.5L14.7 8.5L0 17L-14.7 8.5L-14.7 -8.5Z" stroke="#102642" fill="none" stroke-width="5"></path></g><g transform="translate(1738 652)"><path d="M0 -10L8.7 -5L8.7 5L0 10L-8.7 5L-8.7 -5Z" stroke="#102642" fill="none" stroke-width="5"></path></g><g transform="translate(1512 880)"><path d="M0 -24L20.8 -12L20.8 12L0 24L-20.8 12L-20.8 -12Z" stroke="#102642" fill="none" stroke-width="5"></path></g><g transform="translate(1719 949)"><path d="M0 -17L14.7 -8.5L14.7 8.5L0 17L-14.7 8.5L-14.7 -8.5Z" stroke="#102642" fill="none" stroke-width="5"></path></g><g transform="translate(1912 694)"><path d="M0 -14L12.1 -7L12.1 7L0 14L-12.1 7L-12.1 -7Z" stroke="#102642" fill="none" stroke-width="5"></path></g><g transform="translate(871 413)"><path d="M0 -18L15.6 -9L15.6 9L0 18L-15.6 9L-15.6 -9Z" stroke="#102642" fill="none" stroke-width="5"></path></g><g transform="translate(1784 301)"><path d="M0 -25L21.7 -12.5L21.7 12.5L0 25L-21.7 12.5L-21.7 -12.5Z" stroke="#102642" fill="none" stroke-width="5"></path></g><g transform="translate(1434 564)"><path d="M0 -10L8.7 -5L8.7 5L0 10L-8.7 5L-8.7 -5Z" stroke="#102642" fill="none" stroke-width="5"></path></g><g transform="translate(1735 559)"><path d="M0 -27L23.4 -13.5L23.4 13.5L0 27L-23.4 13.5L-23.4 -13.5Z" stroke="#102642" fill="none" stroke-width="5"></path></g><g transform="translate(714 539)"><path d="M0 -19L16.5 -9.5L16.5 9.5L0 19L-16.5 9.5L-16.5 -9.5Z" stroke="#102642" fill="none" stroke-width="5"></path></g><g transform="translate(888 740)"><path d="M0 -9L7.8 -4.5L7.8 4.5L0 9L-7.8 4.5L-7.8 -4.5Z" stroke="#102642" fill="none" stroke-width="5"></path></g><g transform="translate(480 966)"><path d="M0 -24L20.8 -12L20.8 12L0 24L-20.8 12L-20.8 -12Z" stroke="#102642" fill="none" stroke-width="5"></path></g><g transform="translate(714 987)"><path d="M0 -24L20.8 -12L20.8 12L0 24L-20.8 12L-20.8 -12Z" stroke="#102642" fill="none" stroke-width="5"></path></g><g transform="translate(1176 947)"><path d="M0 -10L8.7 -5L8.7 5L0 10L-8.7 5L-8.7 -5Z" stroke="#102642" fill="none" stroke-width="5"></path></g><g transform="translate(1657 580)"><path d="M0 -25L21.7 -12.5L21.7 12.5L0 25L-21.7 12.5L-21.7 -12.5Z" stroke="#102642" fill="none" stroke-width="5"></path></g><g transform="translate(1497 372)"><path d="M0 -8L6.9 -4L6.9 4L0 8L-6.9 4L-6.9 -4Z" stroke="#102642" fill="none" stroke-width="5"></path></g><g transform="translate(1366 522)"><path d="M0 -23L19.9 -11.5L19.9 11.5L0 23L-19.9 11.5L-19.9 -11.5Z" stroke="#102642" fill="none" stroke-width="5"></path></g><g transform="translate(218 584)"><path d="M0 -9L7.8 -4.5L7.8 4.5L0 9L-7.8 4.5L-7.8 -4.5Z" stroke="#102642" fill="none" stroke-width="5"></path></g><g transform="translate(367 354)"><path d="M0 -26L22.5 -13L22.5 13L0 26L-22.5 13L-22.5 -13Z" stroke="#102642" fill="none" stroke-width="5"></path></g><g transform="translate(1859 734)"><path d="M0 -26L22.5 -13L22.5 13L0 26L-22.5 13L-22.5 -13Z" stroke="#102642" fill="none" stroke-width="5"></path></g><g transform="translate(1856 797)"><path d="M0 -10L8.7 -5L8.7 5L0 10L-8.7 5L-8.7 -5Z" stroke="#102642" fill="none" stroke-width="5"></path></g><g transform="translate(1271 588)"><path d="M0 -22L19.1 -11L19.1 11L0 22L-19.1 11L-19.1 -11Z" stroke="#102642" fill="none" stroke-width="5"></path></g><g transform="translate(1976 500)"><path d="M0 -24L20.8 -12L20.8 12L0 24L-20.8 12L-20.8 -12Z" stroke="#102642" fill="none" stroke-width="5"></path></g><g transform="translate(614 338)"><path d="M0 -7L6.1 -3.5L6.1 3.5L0 7L-6.1 3.5L-6.1 -3.5Z" stroke="#102642" fill="none" stroke-width="5"></path></g><g transform="translate(1636 336)"><path d="M0 -16L13.9 -8L13.9 8L0 16L-13.9 8L-13.9 -8Z" stroke="#102642" fill="none" stroke-width="5"></path></g><g transform="translate(159 996)"><path d="M0 -25L21.7 -12.5L21.7 12.5L0 25L-21.7 12.5L-21.7 -12.5Z" stroke="#102642" fill="none" stroke-width="5"></path></g><g transform="translate(1523 708)"><path d="M0 -18L15.6 -9L15.6 9L0 18L-15.6 9L-15.6 -9Z" stroke="#102642" fill="none" stroke-width="5"></path></g><g transform="translate(467 821)"><path d="M0 -16L13.9 -8L13.9 8L0 16L-13.9 8L-13.9 -8Z" stroke="#102642" fill="none" stroke-width="5"></path></g><g transform="translate(571 667)"><path d="M0 -12L10.4 -6L10.4 6L0 12L-10.4 6L-10.4 -6Z" stroke="#102642" fill="none" stroke-width="5"></path></g><g transform="translate(1618 655)"><path d="M0 -11L9.5 -5.5L9.5 5.5L0 11L-9.5 5.5L-9.5 -5.5Z" stroke="#102642" fill="none" stroke-width="5"></path></g><g transform="translate(681 272)"><path d="M0 -8L6.9 -4L6.9 4L0 8L-6.9 4L-6.9 -4Z" stroke="#102642" fill="none" stroke-width="5"></path></g><g transform="translate(76 794)"><path d="M0 -13L11.3 -6.5L11.3 6.5L0 13L-11.3 6.5L-11.3 -6.5Z" stroke="#102642" fill="none" stroke-width="5"></path></g><g transform="translate(1998 903)"><path d="M0 -28L24.2 -14L24.2 14L0 28L-24.2 14L-24.2 -14Z" stroke="#102642" fill="none" stroke-width="5"></path></g><g transform="translate(613 23)"><path d="M0 -22L19.1 -11L19.1 11L0 22L-19.1 11L-19.1 -11Z" stroke="#102642" fill="none" stroke-width="5"></path></g><g transform="translate(235 283)"><path d="M0 -17L14.7 -8.5L14.7 8.5L0 17L-14.7 8.5L-14.7 -8.5Z" stroke="#102642" fill="none" stroke-width="5"></path></g><g transform="translate(1509 76)"><path d="M0 -17L14.7 -8.5L14.7 8.5L0 17L-14.7 8.5L-14.7 -8.5Z" stroke="#102642" fill="none" stroke-width="5"></path></g><g transform="translate(150 303)"><path d="M0 -22L19.1 -11L19.1 11L0 22L-19.1 11L-19.1 -11Z" stroke="#102642" fill="none" stroke-width="5"></path></g><g transform="translate(1848 492)"><path d="M0 -28L24.2 -14L24.2 14L0 28L-24.2 14L-24.2 -14Z" stroke="#102642" fill="none" stroke-width="5"></path></g><g transform="translate(205 428)"><path d="M0 -16L13.9 -8L13.9 8L0 16L-13.9 8L-13.9 -8Z" stroke="#102642" fill="none" stroke-width="5"></path></g><g transform="translate(1402 473)"><path d="M0 -8L6.9 -4L6.9 4L0 8L-6.9 4L-6.9 -4Z" stroke="#102642" fill="none" stroke-width="5"></path></g><g transform="translate(605 398)"><path d="M0 -11L9.5 -5.5L9.5 5.5L0 11L-9.5 5.5L-9.5 -5.5Z" stroke="#102642" fill="none" stroke-width="5"></path></g><g transform="translate(1503 541)"><path d="M0 -19L16.5 -9.5L16.5 9.5L0 19L-16.5 9.5L-16.5 -9.5Z" stroke="#102642" fill="none" stroke-width="5"></path></g><g transform="translate(815 769)"><path d="M0 -8L6.9 -4L6.9 4L0 8L-6.9 4L-6.9 -4Z" stroke="#102642" fill="none" stroke-width="5"></path></g><g transform="translate(1783 173)"><path d="M0 -25L21.7 -12.5L21.7 12.5L0 25L-21.7 12.5L-21.7 -12.5Z" stroke="#102642" fill="none" stroke-width="5"></path></g><g transform="translate(812 307)"><path d="M0 -21L18.2 -10.5L18.2 10.5L0 21L-18.2 10.5L-18.2 -10.5Z" stroke="#102642" fill="none" stroke-width="5"></path></g><g transform="translate(1945 312)"><path d="M0 -25L21.7 -12.5L21.7 12.5L0 25L-21.7 12.5L-21.7 -12.5Z" stroke="#102642" fill="none" stroke-width="5"></path></g><g transform="translate(1213 34)"><path d="M0 -25L21.7 -12.5L21.7 12.5L0 25L-21.7 12.5L-21.7 -12.5Z" stroke="#102642" fill="none" stroke-width="5"></path></g><g transform="translate(667 688)"><path d="M0 -11L9.5 -5.5L9.5 5.5L0 11L-9.5 5.5L-9.5 -5.5Z" stroke="#102642" fill="none" stroke-width="5"></path></g><g transform="translate(1163 564)"><path d="M0 -24L20.8 -12L20.8 12L0 24L-20.8 12L-20.8 -12Z" stroke="#102642" fill="none" stroke-width="5"></path></g><g transform="translate(476 22)"><path d="M0 -11L9.5 -5.5L9.5 5.5L0 11L-9.5 5.5L-9.5 -5.5Z" stroke="#102642" fill="none" stroke-width="5"></path></g><g transform="translate(41 856)"><path d="M0 -25L21.7 -12.5L21.7 12.5L0 25L-21.7 12.5L-21.7 -12.5Z" stroke="#102642" fill="none" stroke-width="5"></path></g><g transform="translate(1991 975)"><path d="M0 -11L9.5 -5.5L9.5 5.5L0 11L-9.5 5.5L-9.5 -5.5Z" stroke="#102642" fill="none" stroke-width="5"></path></g><g transform="translate(1881 624)"><path d="M0 -15L13 -7.5L13 7.5L0 15L-13 7.5L-13 -7.5Z" stroke="#102642" fill="none" stroke-width="5"></path></g><g transform="translate(1640 451)"><path d="M0 -17L14.7 -8.5L14.7 8.5L0 17L-14.7 8.5L-14.7 -8.5Z" stroke="#102642" fill="none" stroke-width="5"></path></g><g transform="translate(1567 794)"><path d="M0 -10L8.7 -5L8.7 5L0 10L-8.7 5L-8.7 -5Z" stroke="#102642" fill="none" stroke-width="5"></path></g><g transform="translate(1479 656)"><path d="M0 -18L15.6 -9L15.6 9L0 18L-15.6 9L-15.6 -9Z" stroke="#102642" fill="none" stroke-width="5"></path></g><g transform="translate(1248 782)"><path d="M0 -13L11.3 -6.5L11.3 6.5L0 13L-11.3 6.5L-11.3 -6.5Z" stroke="#102642" fill="none" stroke-width="5"></path></g><g transform="translate(1130 358)"><path d="M0 -23L19.9 -11.5L19.9 11.5L0 23L-19.9 11.5L-19.9 -11.5Z" stroke="#102642" fill="none" stroke-width="5"></path></g><g transform="translate(298 354)"><path d="M0 -8L6.9 -4L6.9 4L0 8L-6.9 4L-6.9 -4Z" stroke="#102642" fill="none" stroke-width="5"></path></g><g transform="translate(1171 450)"><path d="M0 -24L20.8 -12L20.8 12L0 24L-20.8 12L-20.8 -12Z" stroke="#102642" fill="none" stroke-width="5"></path></g><g transform="translate(1664 6)"><path d="M0 -24L20.8 -12L20.8 12L0 24L-20.8 12L-20.8 -12Z" stroke="#102642" fill="none" stroke-width="5"></path></g><g transform="translate(549 26)"><path d="M0 -22L19.1 -11L19.1 11L0 22L-19.1 11L-19.1 -11Z" stroke="#102642" fill="none" stroke-width="5"></path></g><g transform="translate(1705 260)"><path d="M0 -17L14.7 -8.5L14.7 8.5L0 17L-14.7 8.5L-14.7 -8.5Z" stroke="#102642" fill="none" stroke-width="5"></path></g><g transform="translate(141 678)"><path d="M0 -24L20.8 -12L20.8 12L0 24L-20.8 12L-20.8 -12Z" stroke="#102642" fill="none" stroke-width="5"></path></g><g transform="translate(1027 779)"><path d="M0 -13L11.3 -6.5L11.3 6.5L0 13L-11.3 6.5L-11.3 -6.5Z" stroke="#102642" fill="none" stroke-width="5"></path></g><g transform="translate(1004 349)"><path d="M0 -16L13.9 -8L13.9 8L0 16L-13.9 8L-13.9 -8Z" stroke="#102642" fill="none" stroke-width="5"></path></g><g transform="translate(1972 603)"><path d="M0 -10L8.7 -5L8.7 5L0 10L-8.7 5L-8.7 -5Z" stroke="#102642" fill="none" stroke-width="5"></path></g><g transform="translate(974 172)"><path d="M0 -28L24.2 -14L24.2 14L0 28L-24.2 14L-24.2 -14Z" stroke="#102642" fill="none" stroke-width="5"></path></g><g transform="translate(1715 88)"><path d="M0 -15L13 -7.5L13 7.5L0 15L-13 7.5L-13 -7.5Z" stroke="#102642" fill="none" stroke-width="5"></path></g><g transform="translate(1730 494)"><path d="M0 -13L11.3 -6.5L11.3 6.5L0 13L-11.3 6.5L-11.3 -6.5Z" stroke="#102642" fill="none" stroke-width="5"></path></g><g transform="translate(1869 550)"><path d="M0 -15L13 -7.5L13 7.5L0 15L-13 7.5L-13 -7.5Z" stroke="#102642" fill="none" stroke-width="5"></path></g><g transform="translate(775 958)"><path d="M0 -26L22.5 -13L22.5 13L0 26L-22.5 13L-22.5 -13Z" stroke="#102642" fill="none" stroke-width="5"></path></g><g transform="translate(194 19)"><path d="M0 -22L19.1 -11L19.1 11L0 22L-19.1 11L-19.1 -11Z" stroke="#102642" fill="none" stroke-width="5"></path></g><g transform="translate(1901 228)"><path d="M0 -21L18.2 -10.5L18.2 10.5L0 21L-18.2 10.5L-18.2 -10.5Z" stroke="#102642" fill="none" stroke-width="5"></path></g><g transform="translate(1360 198)"><path d="M0 -10L8.7 -5L8.7 5L0 10L-8.7 5L-8.7 -5Z" stroke="#102642" fill="none" stroke-width="5"></path></g><g transform="translate(1219 898)"><path d="M0 -28L24.2 -14L24.2 14L0 28L-24.2 14L-24.2 -14Z" stroke="#102642" fill="none" stroke-width="5"></path></g><g transform="translate(1993 18)"><path d="M0 -13L11.3 -6.5L11.3 6.5L0 13L-11.3 6.5L-11.3 -6.5Z" stroke="#102642" fill="none" stroke-width="5"></path></g><g transform="translate(586 538)"><path d="M0 -7L6.1 -3.5L6.1 3.5L0 7L-6.1 3.5L-6.1 -3.5Z" stroke="#102642" fill="none" stroke-width="5"></path></g><g transform="translate(226 972)"><path d="M0 -9L7.8 -4.5L7.8 4.5L0 9L-7.8 4.5L-7.8 -4.5Z" stroke="#102642" fill="none" stroke-width="5"></path></g><g transform="translate(1196 714)"><path d="M0 -27L23.4 -13.5L23.4 13.5L0 27L-23.4 13.5L-23.4 -13.5Z" stroke="#102642" fill="none" stroke-width="5"></path></g><g transform="translate(448 410)"><path d="M0 -12L10.4 -6L10.4 6L0 12L-10.4 6L-10.4 -6Z" stroke="#102642" fill="none" stroke-width="5"></path></g><g transform="translate(1184 782)"><path d="M0 -15L13 -7.5L13 7.5L0 15L-13 7.5L-13 -7.5Z" stroke="#102642" fill="none" stroke-width="5"></path></g><g transform="translate(1151 850)"><path d="M0 -22L19.1 -11L19.1 11L0 22L-19.1 11L-19.1 -11Z" stroke="#102642" fill="none" stroke-width="5"></path></g><g transform="translate(534 473)"><path d="M0 -28L24.2 -14L24.2 14L0 28L-24.2 14L-24.2 -14Z" stroke="#102642" fill="none" stroke-width="5"></path></g><g transform="translate(649 521)"><path d="M0 -28L24.2 -14L24.2 14L0 28L-24.2 14L-24.2 -14Z" stroke="#102642" fill="none" stroke-width="5"></path></g><g transform="translate(1148 27)"><path d="M0 -19L16.5 -9.5L16.5 9.5L0 19L-16.5 9.5L-16.5 -9.5Z" stroke="#102642" fill="none" stroke-width="5"></path></g><g transform="translate(1885 992)"><path d="M0 -19L16.5 -9.5L16.5 9.5L0 19L-16.5 9.5L-16.5 -9.5Z" stroke="#102642" fill="none" stroke-width="5"></path></g><g transform="translate(203 642)"><path d="M0 -22L19.1 -11L19.1 11L0 22L-19.1 11L-19.1 -11Z" stroke="#102642" fill="none" stroke-width="5"></path></g><g transform="translate(1924 764)"><path d="M0 -13L11.3 -6.5L11.3 6.5L0 13L-11.3 6.5L-11.3 -6.5Z" stroke="#102642" fill="none" stroke-width="5"></path></g><g transform="translate(3 525)"><path d="M0 -18L15.6 -9L15.6 9L0 18L-15.6 9L-15.6 -9Z" stroke="#102642" fill="none" stroke-width="5"></path></g><g transform="translate(1276 317)"><path d="M0 -25L21.7 -12.5L21.7 12.5L0 25L-21.7 12.5L-21.7 -12.5Z" stroke="#102642" fill="none" stroke-width="5"></path></g><g transform="translate(1997 192)"><path d="M0 -23L19.9 -11.5L19.9 11.5L0 23L-19.9 11.5L-19.9 -11.5Z" stroke="#102642" fill="none" stroke-width="5"></path></g><g transform="translate(1398 812)"><path d="M0 -21L18.2 -10.5L18.2 10.5L0 21L-18.2 10.5L-18.2 -10.5Z" stroke="#102642" fill="none" stroke-width="5"></path></g><g transform="translate(293 723)"><path d="M0 -9L7.8 -4.5L7.8 4.5L0 9L-7.8 4.5L-7.8 -4.5Z" stroke="#102642" fill="none" stroke-width="5"></path></g><g transform="translate(191 507)"><path d="M0 -27L23.4 -13.5L23.4 13.5L0 27L-23.4 13.5L-23.4 -13.5Z" stroke="#102642" fill="none" stroke-width="5"></path></g><g transform="translate(896 906)"><path d="M0 -17L14.7 -8.5L14.7 8.5L0 17L-14.7 8.5L-14.7 -8.5Z" stroke="#102642" fill="none" stroke-width="5"></path></g><g transform="translate(1394 70)"><path d="M0 -20L17.3 -10L17.3 10L0 20L-17.3 10L-17.3 -10Z" stroke="#102642" fill="none" stroke-width="5"></path></g><g transform="translate(1821 881)"><path d="M0 -19L16.5 -9.5L16.5 9.5L0 19L-16.5 9.5L-16.5 -9.5Z" stroke="#102642" fill="none" stroke-width="5"></path></g><g transform="translate(602 801)"><path d="M0 -23L19.9 -11.5L19.9 11.5L0 23L-19.9 11.5L-19.9 -11.5Z" stroke="#102642" fill="none" stroke-width="5"></path></g><g transform="translate(671 921)"><path d="M0 -13L11.3 -6.5L11.3 6.5L0 13L-11.3 6.5L-11.3 -6.5Z" stroke="#102642" fill="none" stroke-width="5"></path></g><g transform="translate(123 180)"><path d="M0 -26L22.5 -13L22.5 13L0 26L-22.5 13L-22.5 -13Z" stroke="#102642" fill="none" stroke-width="5"></path></g><g transform="translate(1498 174)"><path d="M0 -27L23.4 -13.5L23.4 13.5L0 27L-23.4 13.5L-23.4 -13.5Z" stroke="#102642" fill="none" stroke-width="5"></path></g><g transform="translate(1165 167)"><path d="M0 -24L20.8 -12L20.8 12L0 24L-20.8 12L-20.8 -12Z" stroke="#102642" fill="none" stroke-width="5"></path></g><g transform="translate(1034 927)"><path d="M0 -10L8.7 -5L8.7 5L0 10L-8.7 5L-8.7 -5Z" stroke="#102642" fill="none" stroke-width="5"></path></g><g transform="translate(1577 231)"><path d="M0 -28L24.2 -14L24.2 14L0 28L-24.2 14L-24.2 -14Z" stroke="#102642" fill="none" stroke-width="5"></path></g><g transform="translate(1112 420)"><path d="M0 -24L20.8 -12L20.8 12L0 24L-20.8 12L-20.8 -12Z" stroke="#102642" fill="none" stroke-width="5"></path></g><g transform="translate(1392 633)"><path d="M0 -16L13.9 -8L13.9 8L0 16L-13.9 8L-13.9 -8Z" stroke="#102642" fill="none" stroke-width="5"></path></g><g transform="translate(1210 612)"><path d="M0 -11L9.5 -5.5L9.5 5.5L0 11L-9.5 5.5L-9.5 -5.5Z" stroke="#102642" fill="none" stroke-width="5"></path></g><g transform="translate(15 586)"><path d="M0 -26L22.5 -13L22.5 13L0 26L-22.5 13L-22.5 -13Z" stroke="#102642" fill="none" stroke-width="5"></path></g><g transform="translate(492 892)"><path d="M0 -17L14.7 -8.5L14.7 8.5L0 17L-14.7 8.5L-14.7 -8.5Z" stroke="#102642" fill="none" stroke-width="5"></path></g><g transform="translate(1829 131)"><path d="M0 -26L22.5 -13L22.5 13L0 26L-22.5 13L-22.5 -13Z" stroke="#102642" fill="none" stroke-width="5"></path></g><g transform="translate(760 69)"><path d="M0 -9L7.8 -4.5L7.8 4.5L0 9L-7.8 4.5L-7.8 -4.5Z" stroke="#102642" fill="none" stroke-width="5"></path></g><g transform="translate(926 474)"><path d="M0 -7L6.1 -3.5L6.1 3.5L0 7L-6.1 3.5L-6.1 -3.5Z" stroke="#102642" fill="none" stroke-width="5"></path></g><g transform="translate(388 425)"><path d="M0 -10L8.7 -5L8.7 5L0 10L-8.7 5L-8.7 -5Z" stroke="#102642" fill="none" stroke-width="5"></path></g><g transform="translate(9 962)"><path d="M0 -8L6.9 -4L6.9 4L0 8L-6.9 4L-6.9 -4Z" stroke="#102642" fill="none" stroke-width="5"></path></g><g transform="translate(728 353)"><path d="M0 -15L13 -7.5L13 7.5L0 15L-13 7.5L-13 -7.5Z" stroke="#102642" fill="none" stroke-width="5"></path></g><g transform="translate(882 257)"><path d="M0 -19L16.5 -9.5L16.5 9.5L0 19L-16.5 9.5L-16.5 -9.5Z" stroke="#102642" fill="none" stroke-width="5"></path></g><g transform="translate(938 18)"><path d="M0 -13L11.3 -6.5L11.3 6.5L0 13L-11.3 6.5L-11.3 -6.5Z" stroke="#102642" fill="none" stroke-width="5"></path></g><g transform="translate(737 820)"><path d="M0 -11L9.5 -5.5L9.5 5.5L0 11L-9.5 5.5L-9.5 -5.5Z" stroke="#102642" fill="none" stroke-width="5"></path></g><g transform="translate(1643 210)"><path d="M0 -14L12.1 -7L12.1 7L0 14L-12.1 7L-12.1 -7Z" stroke="#102642" fill="none" stroke-width="5"></path></g><g transform="translate(1572 854)"><path d="M0 -23L19.9 -11.5L19.9 11.5L0 23L-19.9 11.5L-19.9 -11.5Z" stroke="#102642" fill="none" stroke-width="5"></path></g><g transform="translate(419 530)"><path d="M0 -13L11.3 -6.5L11.3 6.5L0 13L-11.3 6.5L-11.3 -6.5Z" stroke="#102642" fill="none" stroke-width="5"></path></g><g transform="translate(103 387)"><path d="M0 -10L8.7 -5L8.7 5L0 10L-8.7 5L-8.7 -5Z" stroke="#102642" fill="none" stroke-width="5"></path></g><g transform="translate(1455 858)"><path d="M0 -17L14.7 -8.5L14.7 8.5L0 17L-14.7 8.5L-14.7 -8.5Z" stroke="#102642" fill="none" stroke-width="5"></path></g><g transform="translate(1916 477)"><path d="M0 -25L21.7 -12.5L21.7 12.5L0 25L-21.7 12.5L-21.7 -12.5Z" stroke="#102642" fill="none" stroke-width="5"></path></g><g transform="translate(679 762)"><path d="M0 -11L9.5 -5.5L9.5 5.5L0 11L-9.5 5.5L-9.5 -5.5Z" stroke="#102642" fill="none" stroke-width="5"></path></g><g transform="translate(1032 705)"><path d="M0 -15L13 -7.5L13 7.5L0 15L-13 7.5L-13 -7.5Z" stroke="#102642" fill="none" stroke-width="5"></path></g><g transform="translate(1679 997)"><path d="M0 -19L16.5 -9.5L16.5 9.5L0 19L-16.5 9.5L-16.5 -9.5Z" stroke="#102642" fill="none" stroke-width="5"></path></g><g transform="translate(25 450)"><path d="M0 -16L13.9 -8L13.9 8L0 16L-13.9 8L-13.9 -8Z" stroke="#102642" fill="none" stroke-width="5"></path></g><g transform="translate(1597 508)"><path d="M0 -15L13 -7.5L13 7.5L0 15L-13 7.5L-13 -7.5Z" stroke="#102642" fill="none" stroke-width="5"></path></g><g transform="translate(85 558)"><path d="M0 -8L6.9 -4L6.9 4L0 8L-6.9 4L-6.9 -4Z" stroke="#102642" fill="none" stroke-width="5"></path></g><g transform="translate(1105 597)"><path d="M0 -13L11.3 -6.5L11.3 6.5L0 13L-11.3 6.5L-11.3 -6.5Z" stroke="#102642" fill="none" stroke-width="5"></path></g><g transform="translate(1375 337)"><path d="M0 -10L8.7 -5L8.7 5L0 10L-8.7 5L-8.7 -5Z" stroke="#102642" fill="none" stroke-width="5"></path></g><g transform="translate(1677 640)"><path d="M0 -21L18.2 -10.5L18.2 10.5L0 21L-18.2 10.5L-18.2 -10.5Z" stroke="#102642" fill="none" stroke-width="5"></path></g><g transform="translate(1687 852)"><path d="M0 -14L12.1 -7L12.1 7L0 14L-12.1 7L-12.1 -7Z" stroke="#102642" fill="none" stroke-width="5"></path></g><g transform="translate(1882 286)"><path d="M0 -20L17.3 -10L17.3 10L0 20L-17.3 10L-17.3 -10Z" stroke="#102642" fill="none" stroke-width="5"></path></g><g transform="translate(139 617)"><path d="M0 -17L14.7 -8.5L14.7 8.5L0 17L-14.7 8.5L-14.7 -8.5Z" stroke="#102642" fill="none" stroke-width="5"></path></g><g transform="translate(1033 601)"><path d="M0 -25L21.7 -12.5L21.7 12.5L0 25L-21.7 12.5L-21.7 -12.5Z" stroke="#102642" fill="none" stroke-width="5"></path></g><g transform="translate(279 140)"><path d="M0 -26L22.5 -13L22.5 13L0 26L-22.5 13L-22.5 -13Z" stroke="#102642" fill="none" stroke-width="5"></path></g><g transform="translate(1302 810)"><path d="M0 -13L11.3 -6.5L11.3 6.5L0 13L-11.3 6.5L-11.3 -6.5Z" stroke="#102642" fill="none" stroke-width="5"></path></g><g transform="translate(1651 75)"><path d="M0 -11L9.5 -5.5L9.5 5.5L0 11L-9.5 5.5L-9.5 -5.5Z" stroke="#102642" fill="none" stroke-width="5"></path></g><g transform="translate(1083 120)"><path d="M0 -21L18.2 -10.5L18.2 10.5L0 21L-18.2 10.5L-18.2 -10.5Z" stroke="#102642" fill="none" stroke-width="5"></path></g><g transform="translate(1338 457)"><path d="M0 -10L8.7 -5L8.7 5L0 10L-8.7 5L-8.7 -5Z" stroke="#102642" fill="none" stroke-width="5"></path></g><g transform="translate(3 17)"><path d="M0 -12L10.4 -6L10.4 6L0 12L-10.4 6L-10.4 -6Z" stroke="#102642" fill="none" stroke-width="5"></path></g><g transform="translate(279 605)"><path d="M0 -25L21.7 -12.5L21.7 12.5L0 25L-21.7 12.5L-21.7 -12.5Z" stroke="#102642" fill="none" stroke-width="5"></path></g><g transform="translate(1994 738)"><path d="M0 -24L20.8 -12L20.8 12L0 24L-20.8 12L-20.8 -12Z" stroke="#102642" fill="none" stroke-width="5"></path></g><g transform="translate(1781 930)"><path d="M0 -7L6.1 -3.5L6.1 3.5L0 7L-6.1 3.5L-6.1 -3.5Z" stroke="#102642" fill="none" stroke-width="5"></path></g><g transform="translate(342 842)"><path d="M0 -19L16.5 -9.5L16.5 9.5L0 19L-16.5 9.5L-16.5 -9.5Z" stroke="#102642" fill="none" stroke-width="5"></path></g><g transform="translate(1038 299)"><path d="M0 -13L11.3 -6.5L11.3 6.5L0 13L-11.3 6.5L-11.3 -6.5Z" stroke="#102642" fill="none" stroke-width="5"></path></g><g transform="translate(1998 434)"><path d="M0 -8L6.9 -4L6.9 4L0 8L-6.9 4L-6.9 -4Z" stroke="#102642" fill="none" stroke-width="5"></path></g><g transform="translate(811 905)"><path d="M0 -18L15.6 -9L15.6 9L0 18L-15.6 9L-15.6 -9Z" stroke="#102642" fill="none" stroke-width="5"></path></g><g transform="translate(1428 751)"><path d="M0 -7L6.1 -3.5L6.1 3.5L0 7L-6.1 3.5L-6.1 -3.5Z" stroke="#102642" fill="none" stroke-width="5"></path></g><g transform="translate(1708 437)"><path d="M0 -28L24.2 -14L24.2 14L0 28L-24.2 14L-24.2 -14Z" stroke="#102642" fill="none" stroke-width="5"></path></g><g transform="translate(1547 986)"><path d="M0 -17L14.7 -8.5L14.7 8.5L0 17L-14.7 8.5L-14.7 -8.5Z" stroke="#102642" fill="none" stroke-width="5"></path></g></g></svg>