<svg id="visual" viewBox="0 0 2000 1000" width="2000" height="1000" xmlns="http://www.w3.org/2000/svg" xmlns:xlink="http://www.w3.org/1999/xlink" version="1.1"><rect x="0" y="0" width="2000" height="1000" fill="#000408"></rect><path d="M0 56L14.5 56.3C29 56.7 58 57.3 87 61.7C116 66 145 74 174 78.8C203 83.7 232 85.3 261 82.5C290 79.7 319 72.3 348 72.8C377 73.3 406 81.7 435 85C464 88.3 493 86.7 522 83.8C551 81 580 77 609 77.3C638 77.7 667 82.3 696 80C725 77.7 754 68.3 783 63.2C812 58 841 57 870 62.7C899 68.3 928 80.7 956.8 80.3C985.7 80 1014.3 67 1043.2 65C1072 63 1101 72 1130 76.2C1159 80.3 1188 79.7 1217 80.5C1246 81.3 1275 83.7 1304 86.3C1333 89 1362 92 1391 91.3C1420 90.7 1449 86.3 1478 86.7C1507 87 1536 92 1565 92.2C1594 92.3 1623 87.7 1652 86.5C1681 85.3 1710 87.7 1739 90.3C1768 93 1797 96 1826 94.5C1855 93 1884 87 1913 86C1942 85 1971 89 1985.5 91L2000 93L2000 1001L1985.5 1001C1971 1001 1942 1001 1913 1001C1884 1001 1855 1001 1826 1001C1797 1001 1768 1001 1739 1001C1710 1001 1681 1001 1652 1001C1623 1001 1594 1001 1565 1001C1536 1001 1507 1001 1478 1001C1449 1001 1420 1001 1391 1001C1362 1001 1333 1001 1304 1001C1275 1001 1246 1001 1217 1001C1188 1001 1159 1001 1130 1001C1101 1001 1072 1001 1043.2 1001C1014.3 1001 985.7 1001 956.8 1001C928 1001 899 1001 870 1001C841 1001 812 1001 783 1001C754 1001 725 1001 696 1001C667 1001 638 1001 609 1001C580 1001 551 1001 522 1001C493 1001 464 1001 435 1001C406 1001 377 1001 348 1001C319 1001 290 1001 261 1001C232 1001 203 1001 174 1001C145 1001 116 1001 87 1001C58 1001 29 1001 14.5 1001L0 1001Z" fill="#000408"></path><path d="M0 170L14.5 168.8C29 167.7 58 165.3 87 161.5C116 157.7 145 152.3 174 149.7C203 147 232 147 261 144.7C290 142.3 319 137.7 348 134.8C377 132 406 131 435 134C464 137 493 144 522 145.5C551 147 580 143 609 145.2C638 147.3 667 155.7 696 161.7C725 167.7 754 171.3 783 165.8C812 160.3 841 145.7 870 141.5C899 137.3 928 143.7 956.8 143.8C985.7 144 1014.3 138 1043.2 135.7C1072 133.3 1101 134.7 1130 138.7C1159 142.7 1188 149.3 1217 150.5C1246 151.7 1275 147.3 1304 147.2C1333 147 1362 151 1391 151.2C1420 151.3 1449 147.7 1478 144.8C1507 142 1536 140 1565 144.5C1594 149 1623 160 1652 162.8C1681 165.7 1710 160.3 1739 161.2C1768 162 1797 169 1826 168.3C1855 167.7 1884 159.3 1913 155.2C1942 151 1971 151 1985.5 151L2000 151L2000 1001L1985.5 1001C1971 1001 1942 1001 1913 1001C1884 1001 1855 1001 1826 1001C1797 1001 1768 1001 1739 1001C1710 1001 1681 1001 1652 1001C1623 1001 1594 1001 1565 1001C1536 1001 1507 1001 1478 1001C1449 1001 1420 1001 1391 1001C1362 1001 1333 1001 1304 1001C1275 1001 1246 1001 1217 1001C1188 1001 1159 1001 1130 1001C1101 1001 1072 1001 1043.2 1001C1014.3 1001 985.7 1001 956.8 1001C928 1001 899 1001 870 1001C841 1001 812 1001 783 1001C754 1001 725 1001 696 1001C667 1001 638 1001 609 1001C580 1001 551 1001 522 1001C493 1001 464 1001 435 1001C406 1001 377 1001 348 1001C319 1001 290 1001 261 1001C232 1001 203 1001 174 1001C145 1001 116 1001 87 1001C58 1001 29 1001 14.5 1001L0 1001Z" fill="#03060a"></path><path d="M0 212L14.5 214C29 216 58 220 87 226.3C116 232.7 145 241.3 174 238.5C203 235.7 232 221.3 261 216.8C290 212.3 319 217.7 348 223C377 228.3 406 233.7 435 236C464 238.3 493 237.7 522 235.7C551 233.7 580 230.3 609 228.5C638 226.7 667 226.3 696 226C725 225.7 754 225.3 783 228.8C812 232.3 841 239.7 870 237.2C899 234.7 928 222.3 956.8 215.7C985.7 209 1014.3 208 1043.2 209.3C1072 210.7 1101 214.3 1130 217.7C1159 221 1188 224 1217 229.7C1246 235.3 1275 243.7 1304 244.7C1333 245.7 1362 239.3 1391 232C1420 224.7 1449 216.3 1478 212.7C1507 209 1536 210 1565 210.8C1594 211.7 1623 212.3 1652 215.8C1681 219.3 1710 225.7 1739 232.2C1768 238.7 1797 245.3 1826 243.5C1855 241.7 1884 231.3 1913 224.3C1942 217.3 1971 213.7 1985.5 211.8L2000 210L2000 1001L1985.5 1001C1971 1001 1942 1001 1913 1001C1884 1001 1855 1001 1826 1001C1797 1001 1768 1001 1739 1001C1710 1001 1681 1001 1652 1001C1623 1001 1594 1001 1565 1001C1536 1001 1507 1001 1478 1001C1449 1001 1420 1001 1391 1001C1362 1001 1333 1001 1304 1001C1275 1001 1246 1001 1217 1001C1188 1001 1159 1001 1130 1001C1101 1001 1072 1001 1043.2 1001C1014.3 1001 985.7 1001 956.8 1001C928 1001 899 1001 870 1001C841 1001 812 1001 783 1001C754 1001 725 1001 696 1001C667 1001 638 1001 609 1001C580 1001 551 1001 522 1001C493 1001 464 1001 435 1001C406 1001 377 1001 348 1001C319 1001 290 1001 261 1001C232 1001 203 1001 174 1001C145 1001 116 1001 87 1001C58 1001 29 1001 14.5 1001L0 1001Z" fill="#05080c"></path><path d="M0 301L14.5 304.3C29 307.7 58 314.3 87 315.5C116 316.7 145 312.3 174 307.8C203 303.3 232 298.7 261 296.2C290 293.7 319 293.3 348 296C377 298.7 406 304.3 435 303.2C464 302 493 294 522 292.5C551 291 580 296 609 297.3C638 298.7 667 296.3 696 294.8C725 293.3 754 292.7 783 297C812 301.3 841 310.7 870 311.2C899 311.7 928 303.3 956.8 298.5C985.7 293.7 1014.3 292.3 1043.2 295.3C1072 298.3 1101 305.7 1130 307.5C1159 309.3 1188 305.7 1217 307.2C1246 308.7 1275 315.3 1304 313.5C1333 311.7 1362 301.3 1391 299C1420 296.7 1449 302.3 1478 306C1507 309.7 1536 311.3 1565 309C1594 306.7 1623 300.3 1652 298.2C1681 296 1710 298 1739 298.7C1768 299.3 1797 298.7 1826 299.3C1855 300 1884 302 1913 301.2C1942 300.3 1971 296.7 1985.5 294.8L2000 293L2000 1001L1985.5 1001C1971 1001 1942 1001 1913 1001C1884 1001 1855 1001 1826 1001C1797 1001 1768 1001 1739 1001C1710 1001 1681 1001 1652 1001C1623 1001 1594 1001 1565 1001C1536 1001 1507 1001 1478 1001C1449 1001 1420 1001 1391 1001C1362 1001 1333 1001 1304 1001C1275 1001 1246 1001 1217 1001C1188 1001 1159 1001 1130 1001C1101 1001 1072 1001 1043.2 1001C1014.3 1001 985.7 1001 956.8 1001C928 1001 899 1001 870 1001C841 1001 812 1001 783 1001C754 1001 725 1001 696 1001C667 1001 638 1001 609 1001C580 1001 551 1001 522 1001C493 1001 464 1001 435 1001C406 1001 377 1001 348 1001C319 1001 290 1001 261 1001C232 1001 203 1001 174 1001C145 1001 116 1001 87 1001C58 1001 29 1001 14.5 1001L0 1001Z" fill="#080a0e"></path><path d="M0 383L14.5 384.7C29 386.3 58 389.7 87 390.8C116 392 145 391 174 385.7C203 380.3 232 370.7 261 369.7C290 368.7 319 376.3 348 378.5C377 380.7 406 377.3 435 375C464 372.7 493 371.3 522 372C551 372.7 580 375.3 609 374.2C638 373 667 368 696 369.5C725 371 754 379 783 379.5C812 380 841 373 870 372.7C899 372.3 928 378.7 956.8 380.5C985.7 382.3 1014.3 379.7 1043.2 377C1072 374.3 1101 371.7 1130 376.3C1159 381 1188 393 1217 394C1246 395 1275 385 1304 377.7C1333 370.3 1362 365.7 1391 369.2C1420 372.7 1449 384.3 1478 389.8C1507 395.3 1536 394.7 1565 392.3C1594 390 1623 386 1652 387.2C1681 388.3 1710 394.7 1739 392.5C1768 390.3 1797 379.7 1826 373.2C1855 366.7 1884 364.3 1913 368.5C1942 372.7 1971 383.3 1985.5 388.7L2000 394L2000 1001L1985.5 1001C1971 1001 1942 1001 1913 1001C1884 1001 1855 1001 1826 1001C1797 1001 1768 1001 1739 1001C1710 1001 1681 1001 1652 1001C1623 1001 1594 1001 1565 1001C1536 1001 1507 1001 1478 1001C1449 1001 1420 1001 1391 1001C1362 1001 1333 1001 1304 1001C1275 1001 1246 1001 1217 1001C1188 1001 1159 1001 1130 1001C1101 1001 1072 1001 1043.2 1001C1014.3 1001 985.7 1001 956.8 1001C928 1001 899 1001 870 1001C841 1001 812 1001 783 1001C754 1001 725 1001 696 1001C667 1001 638 1001 609 1001C580 1001 551 1001 522 1001C493 1001 464 1001 435 1001C406 1001 377 1001 348 1001C319 1001 290 1001 261 1001C232 1001 203 1001 174 1001C145 1001 116 1001 87 1001C58 1001 29 1001 14.5 1001L0 1001Z" fill="#0b0c0f"></path><path d="M0 449L14.5 447.8C29 446.7 58 444.3 87 443.5C116 442.7 145 443.3 174 442.8C203 442.3 232 440.7 261 442.8C290 445 319 451 348 455.5C377 460 406 463 435 464.7C464 466.3 493 466.7 522 464.7C551 462.7 580 458.3 609 456.7C638 455 667 456 696 460.3C725 464.7 754 472.3 783 472.2C812 472 841 464 870 463.7C899 463.3 928 470.7 956.8 469.5C985.7 468.3 1014.3 458.7 1043.2 452C1072 445.3 1101 441.7 1130 442.5C1159 443.3 1188 448.7 1217 455.3C1246 462 1275 470 1304 472.5C1333 475 1362 472 1391 472.3C1420 472.7 1449 476.3 1478 472.2C1507 468 1536 456 1565 451.5C1594 447 1623 450 1652 452.8C1681 455.7 1710 458.3 1739 459.3C1768 460.3 1797 459.7 1826 462.7C1855 465.7 1884 472.3 1913 470.7C1942 469 1971 459 1985.5 454L2000 449L2000 1001L1985.5 1001C1971 1001 1942 1001 1913 1001C1884 1001 1855 1001 1826 1001C1797 1001 1768 1001 1739 1001C1710 1001 1681 1001 1652 1001C1623 1001 1594 1001 1565 1001C1536 1001 1507 1001 1478 1001C1449 1001 1420 1001 1391 1001C1362 1001 1333 1001 1304 1001C1275 1001 1246 1001 1217 1001C1188 1001 1159 1001 1130 1001C1101 1001 1072 1001 1043.2 1001C1014.3 1001 985.7 1001 956.8 1001C928 1001 899 1001 870 1001C841 1001 812 1001 783 1001C754 1001 725 1001 696 1001C667 1001 638 1001 609 1001C580 1001 551 1001 522 1001C493 1001 464 1001 435 1001C406 1001 377 1001 348 1001C319 1001 290 1001 261 1001C232 1001 203 1001 174 1001C145 1001 116 1001 87 1001C58 1001 29 1001 14.5 1001L0 1001Z" fill="#0d0d10"></path><path d="M0 549L14.5 544C29 539 58 529 87 526.7C116 524.3 145 529.7 174 530.3C203 531 232 527 261 524.7C290 522.3 319 521.7 348 522.7C377 523.7 406 526.3 435 531.8C464 537.3 493 545.7 522 548.8C551 552 580 550 609 545.3C638 540.7 667 533.3 696 534.5C725 535.7 754 545.3 783 548.3C812 551.3 841 547.7 870 543.7C899 539.7 928 535.3 956.8 535.5C985.7 535.7 1014.3 540.3 1043.2 538.5C1072 536.7 1101 528.3 1130 530C1159 531.7 1188 543.3 1217 546.3C1246 549.3 1275 543.7 1304 538.8C1333 534 1362 530 1391 532.3C1420 534.7 1449 543.3 1478 542.5C1507 541.7 1536 531.3 1565 529C1594 526.7 1623 532.3 1652 535.3C1681 538.3 1710 538.7 1739 541.7C1768 544.7 1797 550.3 1826 547.7C1855 545 1884 534 1913 527.5C1942 521 1971 519 1985.5 518L2000 517L2000 1001L1985.5 1001C1971 1001 1942 1001 1913 1001C1884 1001 1855 1001 1826 1001C1797 1001 1768 1001 1739 1001C1710 1001 1681 1001 1652 1001C1623 1001 1594 1001 1565 1001C1536 1001 1507 1001 1478 1001C1449 1001 1420 1001 1391 1001C1362 1001 1333 1001 1304 1001C1275 1001 1246 1001 1217 1001C1188 1001 1159 1001 1130 1001C1101 1001 1072 1001 1043.2 1001C1014.3 1001 985.7 1001 956.8 1001C928 1001 899 1001 870 1001C841 1001 812 1001 783 1001C754 1001 725 1001 696 1001C667 1001 638 1001 609 1001C580 1001 551 1001 522 1001C493 1001 464 1001 435 1001C406 1001 377 1001 348 1001C319 1001 290 1001 261 1001C232 1001 203 1001 174 1001C145 1001 116 1001 87 1001C58 1001 29 1001 14.5 1001L0 1001Z" fill="#0f0f12"></path><path d="M0 606L14.5 605.5C29 605 58 604 87 605C116 606 145 609 174 611.8C203 614.7 232 617.3 261 621.3C290 625.3 319 630.7 348 627.3C377 624 406 612 435 607C464 602 493 604 522 606.2C551 608.3 580 610.7 609 614.3C638 618 667 623 696 623.2C725 623.3 754 618.7 783 616.2C812 613.7 841 613.3 870 616.8C899 620.3 928 627.7 956.8 630.8C985.7 634 1014.3 633 1043.2 630C1072 627 1101 622 1130 618.8C1159 615.7 1188 614.3 1217 613.8C1246 613.3 1275 613.7 1304 617.2C1333 620.7 1362 627.3 1391 628C1420 628.7 1449 623.3 1478 622.7C1507 622 1536 626 1565 625C1594 624 1623 618 1652 619C1681 620 1710 628 1739 625.3C1768 622.7 1797 609.3 1826 605.7C1855 602 1884 608 1913 613.8C1942 619.7 1971 625.3 1985.5 628.2L2000 631L2000 1001L1985.5 1001C1971 1001 1942 1001 1913 1001C1884 1001 1855 1001 1826 1001C1797 1001 1768 1001 1739 1001C1710 1001 1681 1001 1652 1001C1623 1001 1594 1001 1565 1001C1536 1001 1507 1001 1478 1001C1449 1001 1420 1001 1391 1001C1362 1001 1333 1001 1304 1001C1275 1001 1246 1001 1217 1001C1188 1001 1159 1001 1130 1001C1101 1001 1072 1001 1043.2 1001C1014.3 1001 985.7 1001 956.8 1001C928 1001 899 1001 870 1001C841 1001 812 1001 783 1001C754 1001 725 1001 696 1001C667 1001 638 1001 609 1001C580 1001 551 1001 522 1001C493 1001 464 1001 435 1001C406 1001 377 1001 348 1001C319 1001 290 1001 261 1001C232 1001 203 1001 174 1001C145 1001 116 1001 87 1001C58 1001 29 1001 14.5 1001L0 1001Z" fill="#111013"></path><path d="M0 673L14.5 679.5C29 686 58 699 87 702C116 705 145 698 174 695.3C203 692.7 232 694.3 261 697.5C290 700.7 319 705.3 348 701C377 696.7 406 683.3 435 680C464 676.7 493 683.3 522 684.5C551 685.7 580 681.3 609 680.5C638 679.7 667 682.3 696 685.7C725 689 754 693 783 691.5C812 690 841 683 870 682C899 681 928 686 956.8 687C985.7 688 1014.3 685 1043.2 685.5C1072 686 1101 690 1130 689.3C1159 688.7 1188 683.3 1217 685.2C1246 687 1275 696 1304 695.5C1333 695 1362 685 1391 682.3C1420 679.7 1449 684.3 1478 683.3C1507 682.3 1536 675.7 1565 673.5C1594 671.3 1623 673.7 1652 674.8C1681 676 1710 676 1739 680.7C1768 685.3 1797 694.7 1826 700.5C1855 706.3 1884 708.7 1913 705.3C1942 702 1971 693 1985.5 688.5L2000 684L2000 1001L1985.5 1001C1971 1001 1942 1001 1913 1001C1884 1001 1855 1001 1826 1001C1797 1001 1768 1001 1739 1001C1710 1001 1681 1001 1652 1001C1623 1001 1594 1001 1565 1001C1536 1001 1507 1001 1478 1001C1449 1001 1420 1001 1391 1001C1362 1001 1333 1001 1304 1001C1275 1001 1246 1001 1217 1001C1188 1001 1159 1001 1130 1001C1101 1001 1072 1001 1043.2 1001C1014.3 1001 985.7 1001 956.8 1001C928 1001 899 1001 870 1001C841 1001 812 1001 783 1001C754 1001 725 1001 696 1001C667 1001 638 1001 609 1001C580 1001 551 1001 522 1001C493 1001 464 1001 435 1001C406 1001 377 1001 348 1001C319 1001 290 1001 261 1001C232 1001 203 1001 174 1001C145 1001 116 1001 87 1001C58 1001 29 1001 14.5 1001L0 1001Z" fill="#131214"></path><path d="M0 761L14.5 759C29 757 58 753 87 756.7C116 760.3 145 771.7 174 772.5C203 773.3 232 763.7 261 764.2C290 764.7 319 775.3 348 777.7C377 780 406 774 435 768.7C464 763.3 493 758.7 522 755.7C551 752.7 580 751.3 609 750.3C638 749.3 667 748.7 696 751.2C725 753.7 754 759.3 783 763.2C812 767 841 769 870 768.7C899 768.3 928 765.7 956.8 769C985.7 772.3 1014.3 781.7 1043.2 780.2C1072 778.7 1101 766.3 1130 760.7C1159 755 1188 756 1217 758.2C1246 760.3 1275 763.7 1304 765.5C1333 767.3 1362 767.7 1391 768.2C1420 768.7 1449 769.3 1478 771.3C1507 773.3 1536 776.7 1565 774.2C1594 771.7 1623 763.3 1652 761.2C1681 759 1710 763 1739 767.5C1768 772 1797 777 1826 774.2C1855 771.3 1884 760.7 1913 759.3C1942 758 1971 766 1985.5 770L2000 774L2000 1001L1985.5 1001C1971 1001 1942 1001 1913 1001C1884 1001 1855 1001 1826 1001C1797 1001 1768 1001 1739 1001C1710 1001 1681 1001 1652 1001C1623 1001 1594 1001 1565 1001C1536 1001 1507 1001 1478 1001C1449 1001 1420 1001 1391 1001C1362 1001 1333 1001 1304 1001C1275 1001 1246 1001 1217 1001C1188 1001 1159 1001 1130 1001C1101 1001 1072 1001 1043.2 1001C1014.3 1001 985.7 1001 956.8 1001C928 1001 899 1001 870 1001C841 1001 812 1001 783 1001C754 1001 725 1001 696 1001C667 1001 638 1001 609 1001C580 1001 551 1001 522 1001C493 1001 464 1001 435 1001C406 1001 377 1001 348 1001C319 1001 290 1001 261 1001C232 1001 203 1001 174 1001C145 1001 116 1001 87 1001C58 1001 29 1001 14.5 1001L0 1001Z" fill="#141315"></path><path d="M0 860L14.5 858.8C29 857.7 58 855.3 87 852.7C116 850 145 847 174 844C203 841 232 838 261 840.2C290 842.3 319 849.7 348 854.8C377 860 406 863 435 860.5C464 858 493 850 522 843.7C551 837.3 580 832.7 609 831.5C638 830.3 667 832.7 696 837C725 841.3 754 847.7 783 851.5C812 855.3 841 856.7 870 855.8C899 855 928 852 956.8 849.5C985.7 847 1014.3 845 1043.2 840.8C1072 836.7 1101 830.3 1130 830.8C1159 831.3 1188 838.7 1217 844C1246 849.3 1275 852.7 1304 852.2C1333 851.7 1362 847.3 1391 843C1420 838.7 1449 834.3 1478 832.5C1507 830.7 1536 831.3 1565 837.2C1594 843 1623 854 1652 853.3C1681 852.7 1710 840.3 1739 840.5C1768 840.7 1797 853.3 1826 858C1855 862.7 1884 859.3 1913 854.7C1942 850 1971 844 1985.5 841L2000 838L2000 1001L1985.5 1001C1971 1001 1942 1001 1913 1001C1884 1001 1855 1001 1826 1001C1797 1001 1768 1001 1739 1001C1710 1001 1681 1001 1652 1001C1623 1001 1594 1001 1565 1001C1536 1001 1507 1001 1478 1001C1449 1001 1420 1001 1391 1001C1362 1001 1333 1001 1304 1001C1275 1001 1246 1001 1217 1001C1188 1001 1159 1001 1130 1001C1101 1001 1072 1001 1043.2 1001C1014.3 1001 985.7 1001 956.8 1001C928 1001 899 1001 870 1001C841 1001 812 1001 783 1001C754 1001 725 1001 696 1001C667 1001 638 1001 609 1001C580 1001 551 1001 522 1001C493 1001 464 1001 435 1001C406 1001 377 1001 348 1001C319 1001 290 1001 261 1001C232 1001 203 1001 174 1001C145 1001 116 1001 87 1001C58 1001 29 1001 14.5 1001L0 1001Z" fill="#161516"></path><path d="M0 908L14.5 907.7C29 907.3 58 906.7 87 911.8C116 917 145 928 174 932.2C203 936.3 232 933.7 261 930C290 926.3 319 921.7 348 916.8C377 912 406 907 435 906.5C464 906 493 910 522 914.8C551 919.7 580 925.3 609 927C638 928.7 667 926.3 696 928.7C725 931 754 938 783 936.7C812 935.3 841 925.7 870 921.8C899 918 928 920 956.8 922.2C985.7 924.3 1014.3 926.7 1043.2 929.7C1072 932.7 1101 936.3 1130 931.7C1159 927 1188 914 1217 908.2C1246 902.3 1275 903.7 1304 905.8C1333 908 1362 911 1391 915.3C1420 919.7 1449 925.3 1478 927.5C1507 929.7 1536 928.3 1565 925.3C1594 922.3 1623 917.7 1652 916.7C1681 915.7 1710 918.3 1739 919.3C1768 920.3 1797 919.7 1826 919.8C1855 920 1884 921 1913 919.5C1942 918 1971 914 1985.5 912L2000 910L2000 1001L1985.5 1001C1971 1001 1942 1001 1913 1001C1884 1001 1855 1001 1826 1001C1797 1001 1768 1001 1739 1001C1710 1001 1681 1001 1652 1001C1623 1001 1594 1001 1565 1001C1536 1001 1507 1001 1478 1001C1449 1001 1420 1001 1391 1001C1362 1001 1333 1001 1304 1001C1275 1001 1246 1001 1217 1001C1188 1001 1159 1001 1130 1001C1101 1001 1072 1001 1043.2 1001C1014.3 1001 985.7 1001 956.8 1001C928 1001 899 1001 870 1001C841 1001 812 1001 783 1001C754 1001 725 1001 696 1001C667 1001 638 1001 609 1001C580 1001 551 1001 522 1001C493 1001 464 1001 435 1001C406 1001 377 1001 348 1001C319 1001 290 1001 261 1001C232 1001 203 1001 174 1001C145 1001 116 1001 87 1001C58 1001 29 1001 14.5 1001L0 1001Z" fill="#171617"></path></svg>